G04 #@! TF.GenerationSoftware,KiCad,Pcbnew,(6.0.9)*
G04 #@! TF.CreationDate,2023-01-08T15:40:12+09:00*
G04 #@! TF.ProjectId,WBMon,57424d6f-6e2e-46b6-9963-61645f706362,1.0*
G04 #@! TF.SameCoordinates,Original*
G04 #@! TF.FileFunction,Legend,Top*
G04 #@! TF.FilePolarity,Positive*
%FSLAX46Y46*%
G04 Gerber Fmt 4.6, Leading zero omitted, Abs format (unit mm)*
G04 Created by KiCad (PCBNEW (6.0.9)) date 2023-01-08 15:40:12*
%MOMM*%
%LPD*%
G01*
G04 APERTURE LIST*
%ADD10C,0.100000*%
%ADD11C,0.120000*%
%ADD12C,0.200000*%
G04 APERTURE END LIST*
D10*
X-3907142Y-1571428D02*
X-3907142Y-2057142D01*
X-3878571Y-2114285D01*
X-3850000Y-2142857D01*
X-3792857Y-2171428D01*
X-3678571Y-2171428D01*
X-3621428Y-2142857D01*
X-3592857Y-2114285D01*
X-3564285Y-2057142D01*
X-3564285Y-1571428D01*
X-3021428Y-1771428D02*
X-3021428Y-2171428D01*
X-3164285Y-1542857D02*
X-3307142Y-1971428D01*
X-2935714Y-1971428D01*
X42857Y5778571D02*
X42857Y5292857D01*
X71428Y5235714D01*
X100000Y5207142D01*
X157142Y5178571D01*
X271428Y5178571D01*
X328571Y5207142D01*
X357142Y5235714D01*
X385714Y5292857D01*
X385714Y5778571D01*
X957142Y5778571D02*
X671428Y5778571D01*
X642857Y5492857D01*
X671428Y5521428D01*
X728571Y5550000D01*
X871428Y5550000D01*
X928571Y5521428D01*
X957142Y5492857D01*
X985714Y5435714D01*
X985714Y5292857D01*
X957142Y5235714D01*
X928571Y5207142D01*
X871428Y5178571D01*
X728571Y5178571D01*
X671428Y5207142D01*
X642857Y5235714D01*
X-1300000Y-2114285D02*
X-1328571Y-2142857D01*
X-1414285Y-2171428D01*
X-1471428Y-2171428D01*
X-1557142Y-2142857D01*
X-1614285Y-2085714D01*
X-1642857Y-2028571D01*
X-1671428Y-1914285D01*
X-1671428Y-1828571D01*
X-1642857Y-1714285D01*
X-1614285Y-1657142D01*
X-1557142Y-1600000D01*
X-1471428Y-1571428D01*
X-1414285Y-1571428D01*
X-1328571Y-1600000D01*
X-1300000Y-1628571D01*
X-728571Y-2171428D02*
X-1071428Y-2171428D01*
X-900000Y-2171428D02*
X-900000Y-1571428D01*
X-957142Y-1657142D01*
X-1014285Y-1714285D01*
X-1071428Y-1742857D01*
X200000Y-2171428D02*
X-85714Y-2171428D01*
X-85714Y-1571428D01*
X714285Y-2171428D02*
X371428Y-2171428D01*
X542857Y-2171428D02*
X542857Y-1571428D01*
X485714Y-1657142D01*
X428571Y-1714285D01*
X371428Y-1742857D01*
X-457142Y11178571D02*
X-457142Y10692857D01*
X-428571Y10635714D01*
X-399999Y10607142D01*
X-342857Y10578571D01*
X-228571Y10578571D01*
X-171428Y10607142D01*
X-142857Y10635714D01*
X-114285Y10692857D01*
X-114285Y11178571D01*
X114285Y11178571D02*
X485714Y11178571D01*
X285714Y10950000D01*
X371428Y10950000D01*
X428571Y10921428D01*
X457142Y10892857D01*
X485714Y10835714D01*
X485714Y10692857D01*
X457142Y10635714D01*
X428571Y10607142D01*
X371428Y10578571D01*
X200000Y10578571D01*
X142857Y10607142D01*
X114285Y10635714D01*
X2100000Y757142D02*
X2185714Y728571D01*
X2328571Y728571D01*
X2385714Y757142D01*
X2414285Y785714D01*
X2442857Y842857D01*
X2442857Y900000D01*
X2414285Y957142D01*
X2385714Y985714D01*
X2328571Y1014285D01*
X2214285Y1042857D01*
X2157142Y1071428D01*
X2128571Y1100000D01*
X2100000Y1157142D01*
X2100000Y1214285D01*
X2128571Y1271428D01*
X2157142Y1300000D01*
X2214285Y1328571D01*
X2357142Y1328571D01*
X2442857Y1300000D01*
X2642857Y1328571D02*
X2785714Y728571D01*
X2900000Y1157142D01*
X3014285Y728571D01*
X3157142Y1328571D01*
X3700000Y728571D02*
X3357142Y728571D01*
X3528571Y728571D02*
X3528571Y1328571D01*
X3471428Y1242857D01*
X3414285Y1185714D01*
X3357142Y1157142D01*
X-8900000Y-8171428D02*
X-8900000Y-8600000D01*
X-8928571Y-8685714D01*
X-8985714Y-8742857D01*
X-9071428Y-8771428D01*
X-9128571Y-8771428D01*
X-8642857Y-8228571D02*
X-8614285Y-8200000D01*
X-8557142Y-8171428D01*
X-8414285Y-8171428D01*
X-8357142Y-8200000D01*
X-8328571Y-8228571D01*
X-8300000Y-8285714D01*
X-8300000Y-8342857D01*
X-8328571Y-8428571D01*
X-8671428Y-8771428D01*
X-8300000Y-8771428D01*
X-8007142Y-2371428D02*
X-8007142Y-2857142D01*
X-7978571Y-2914285D01*
X-7950000Y-2942857D01*
X-7892857Y-2971428D01*
X-7778571Y-2971428D01*
X-7721428Y-2942857D01*
X-7692857Y-2914285D01*
X-7664285Y-2857142D01*
X-7664285Y-2371428D01*
X-7407142Y-2428571D02*
X-7378571Y-2400000D01*
X-7321428Y-2371428D01*
X-7178571Y-2371428D01*
X-7121428Y-2400000D01*
X-7092857Y-2428571D01*
X-7064285Y-2485714D01*
X-7064285Y-2542857D01*
X-7092857Y-2628571D01*
X-7435714Y-2971428D01*
X-7064285Y-2971428D01*
X-5800000Y-2064285D02*
X-5828571Y-2092857D01*
X-5914285Y-2121428D01*
X-5971428Y-2121428D01*
X-6057142Y-2092857D01*
X-6114285Y-2035714D01*
X-6142857Y-1978571D01*
X-6171428Y-1864285D01*
X-6171428Y-1778571D01*
X-6142857Y-1664285D01*
X-6114285Y-1607142D01*
X-6057142Y-1550000D01*
X-5971428Y-1521428D01*
X-5914285Y-1521428D01*
X-5828571Y-1550000D01*
X-5800000Y-1578571D01*
X-5571428Y-1578571D02*
X-5542857Y-1550000D01*
X-5485714Y-1521428D01*
X-5342857Y-1521428D01*
X-5285714Y-1550000D01*
X-5257142Y-1578571D01*
X-5228571Y-1635714D01*
X-5228571Y-1692857D01*
X-5257142Y-1778571D01*
X-5600000Y-2121428D01*
X-5228571Y-2121428D01*
X1600000Y-1857142D02*
X1400000Y-1857142D01*
X1400000Y-2171428D02*
X1400000Y-1571428D01*
X1685714Y-1571428D01*
X2228571Y-2171428D02*
X1885714Y-2171428D01*
X2057142Y-2171428D02*
X2057142Y-1571428D01*
X2000000Y-1657142D01*
X1942857Y-1714285D01*
X1885714Y-1742857D01*
X7157142Y10678571D02*
X7157142Y11278571D01*
X7300000Y11278571D01*
X7385714Y11250000D01*
X7442857Y11192857D01*
X7471428Y11135714D01*
X7500000Y11021428D01*
X7500000Y10935714D01*
X7471428Y10821428D01*
X7442857Y10764285D01*
X7385714Y10707142D01*
X7300000Y10678571D01*
X7157142Y10678571D01*
X8071428Y10678571D02*
X7728571Y10678571D01*
X7900000Y10678571D02*
X7900000Y11278571D01*
X7842857Y11192857D01*
X7785714Y11135714D01*
X7728571Y11107142D01*
X-7507142Y11328571D02*
X-7507142Y10842857D01*
X-7478571Y10785714D01*
X-7450000Y10757142D01*
X-7392857Y10728571D01*
X-7278571Y10728571D01*
X-7221428Y10757142D01*
X-7192857Y10785714D01*
X-7164285Y10842857D01*
X-7164285Y11328571D01*
X-6564285Y10728571D02*
X-6907142Y10728571D01*
X-6735714Y10728571D02*
X-6735714Y11328571D01*
X-6792857Y11242857D01*
X-6850000Y11185714D01*
X-6907142Y11157142D01*
X2750000Y9428571D02*
X2550000Y9714285D01*
X2407142Y9428571D02*
X2407142Y10028571D01*
X2635714Y10028571D01*
X2692857Y10000000D01*
X2721428Y9971428D01*
X2750000Y9914285D01*
X2750000Y9828571D01*
X2721428Y9771428D01*
X2692857Y9742857D01*
X2635714Y9714285D01*
X2407142Y9714285D01*
X3321428Y9428571D02*
X2978571Y9428571D01*
X3150000Y9428571D02*
X3150000Y10028571D01*
X3092857Y9942857D01*
X3035714Y9885714D01*
X2978571Y9857142D01*
X-8650000Y-2214285D02*
X-8678571Y-2242857D01*
X-8764285Y-2271428D01*
X-8821428Y-2271428D01*
X-8907142Y-2242857D01*
X-8964285Y-2185714D01*
X-8992857Y-2128571D01*
X-9021428Y-2014285D01*
X-9021428Y-1928571D01*
X-8992857Y-1814285D01*
X-8964285Y-1757142D01*
X-8907142Y-1700000D01*
X-8821428Y-1671428D01*
X-8764285Y-1671428D01*
X-8678571Y-1700000D01*
X-8650000Y-1728571D01*
X-8450000Y-1671428D02*
X-8078571Y-1671428D01*
X-8278571Y-1900000D01*
X-8192857Y-1900000D01*
X-8135714Y-1928571D01*
X-8107142Y-1957142D01*
X-8078571Y-2014285D01*
X-8078571Y-2157142D01*
X-8107142Y-2214285D01*
X-8135714Y-2242857D01*
X-8192857Y-2271428D01*
X-8364285Y-2271428D01*
X-8421428Y-2242857D01*
X-8450000Y-2214285D01*
D11*
X-1950000Y-4950000D02*
X-1950000Y-3050000D01*
X-3950000Y-3050000D02*
X-2950000Y-3050000D01*
X-4850000Y-3050000D02*
X-4950000Y-3050000D01*
X-4950000Y-4950000D02*
X-4850000Y-4950000D01*
X-4950000Y-3050000D02*
X-4950000Y-4950000D01*
X-2050000Y-4950000D02*
X-1950000Y-4950000D01*
X-1950000Y-3050000D02*
X-2050000Y-3050000D01*
D12*
X-4300000Y-6100000D02*
G75*
G03*
X-4300000Y-6100000I-100000J0D01*
G01*
D11*
X-450000Y6050000D02*
X-450000Y5950000D01*
X1450000Y8950000D02*
X-450000Y8950000D01*
X1450000Y8850000D02*
X1450000Y8950000D01*
X-450000Y5950000D02*
X1450000Y5950000D01*
X1450000Y5950000D02*
X1450000Y6050000D01*
X-450000Y8950000D02*
X-450000Y8850000D01*
D12*
X2700000Y6500000D02*
G75*
G03*
X2700000Y6500000I-100000J0D01*
G01*
D11*
X-1400000Y-3900000D02*
X-1000000Y-3900000D01*
X-450000Y-5650000D02*
X-450000Y-2350000D01*
X-1950000Y-5650000D02*
X-450000Y-5650000D01*
X-1200000Y-4100000D02*
X-1400000Y-3900000D01*
X-1950000Y-5650000D02*
X-1950000Y-2350000D01*
X-1000000Y-3900000D02*
X-1200000Y-4100000D01*
X-1950000Y-2350000D02*
X-450000Y-2350000D01*
X100000Y-3900000D02*
X500000Y-3900000D01*
X-450000Y-2350000D02*
X1050000Y-2350000D01*
X500000Y-3900000D02*
X300000Y-4100000D01*
X-450000Y-5650000D02*
X1050000Y-5650000D01*
X-450000Y-5650000D02*
X-450000Y-2350000D01*
X1050000Y-5650000D02*
X1050000Y-2350000D01*
X300000Y-4100000D02*
X100000Y-3900000D01*
X4300000Y-4900000D02*
X4300000Y-3900000D01*
X4300000Y6900000D02*
X8600000Y6900000D01*
X4300000Y6900000D02*
X4300000Y5900000D01*
X4300000Y-4900000D02*
X8600000Y-4900000D01*
X-9350000Y-2500000D02*
X-11250000Y-2500000D01*
X-9350000Y-9450000D02*
X-11250000Y-9450000D01*
X-9350000Y-9450000D02*
X-9350000Y-2500000D01*
X-11250000Y-9450000D02*
X-11250000Y-2500000D01*
X-6800000Y-3200000D02*
X-6800000Y-3700000D01*
X-8200000Y-3700000D02*
X-8200000Y-3200000D01*
X-8200000Y-3200000D02*
X-8100000Y-3200000D01*
X-6800000Y-4800000D02*
X-6900000Y-4800000D01*
X-8100000Y-4800000D02*
X-8200000Y-4800000D01*
X-6800000Y-4300000D02*
X-6800000Y-4800000D01*
X-7000000Y-3200000D02*
X-6800000Y-3200000D01*
X-8200000Y-4800000D02*
X-8200000Y-4300000D01*
X-5700000Y-3900000D02*
X-5500000Y-4100000D01*
X-5900000Y-4100000D02*
X-5700000Y-3900000D01*
X-4950000Y-2350000D02*
X-4950000Y-5650000D01*
X-6450000Y-2350000D02*
X-6450000Y-5650000D01*
X-4950000Y-2350000D02*
X-6450000Y-2350000D01*
X-4950000Y-5650000D02*
X-6450000Y-5650000D01*
X-5500000Y-4100000D02*
X-5900000Y-4100000D01*
X1600000Y-4100000D02*
X1800000Y-3900000D01*
X1050000Y-2350000D02*
X1050000Y-5650000D01*
X2550000Y-2350000D02*
X1050000Y-2350000D01*
X1800000Y-3900000D02*
X2000000Y-4100000D01*
X2000000Y-4100000D02*
X1600000Y-4100000D01*
X2550000Y-5650000D02*
X1050000Y-5650000D01*
X2550000Y-2350000D02*
X2550000Y-5650000D01*
X8350000Y10250000D02*
X11650000Y10250000D01*
X8350000Y11750000D02*
X8350000Y10250000D01*
X10100000Y10800000D02*
X9900000Y11000000D01*
X9900000Y11000000D02*
X10100000Y11200000D01*
X11650000Y11750000D02*
X11650000Y10250000D01*
X8350000Y11750000D02*
X11650000Y11750000D01*
X10100000Y11200000D02*
X10100000Y10800000D01*
X-10750000Y10550000D02*
X-9750000Y10550000D01*
X-3350000Y-550000D02*
X-3350000Y450000D01*
X-3350000Y-550000D02*
X-4350000Y-550000D01*
X-3350000Y10550000D02*
X-4350000Y10550000D01*
X-10750000Y-550000D02*
X-9750000Y-550000D01*
X-3350000Y10550000D02*
X-3350000Y9550000D01*
X-10750000Y10550000D02*
X-10750000Y9550000D01*
X-10750000Y-550000D02*
X-10750000Y450000D01*
X2150000Y8950000D02*
X-1150000Y8950000D01*
X400000Y9500000D02*
X400000Y9900000D01*
X600000Y9700000D02*
X400000Y9500000D01*
X-1150000Y8950000D02*
X-1150000Y10450000D01*
X2150000Y10450000D02*
X-1150000Y10450000D01*
X400000Y9900000D02*
X600000Y9700000D01*
X2150000Y8950000D02*
X2150000Y10450000D01*
X-9250000Y-1500000D02*
X-11250000Y-1500000D01*
X-9250000Y-2500000D02*
X-11250000Y-2500000D01*
X-11250000Y-1500000D02*
X-11250000Y-2500000D01*
X-9250000Y-1500000D02*
X-9250000Y-2500000D01*
M02*
