G04 #@! TF.GenerationSoftware,KiCad,Pcbnew,(6.0.9)*
G04 #@! TF.CreationDate,2023-01-08T15:40:12+09:00*
G04 #@! TF.ProjectId,WBMon,57424d6f-6e2e-46b6-9963-61645f706362,1.0*
G04 #@! TF.SameCoordinates,Original*
G04 #@! TF.FileFunction,Copper,L2,Bot*
G04 #@! TF.FilePolarity,Positive*
%FSLAX46Y46*%
G04 Gerber Fmt 4.6, Leading zero omitted, Abs format (unit mm)*
G04 Created by KiCad (PCBNEW (6.0.9)) date 2023-01-08 15:40:12*
%MOMM*%
%LPD*%
G01*
G04 APERTURE LIST*
G04 Aperture macros list*
%AMRoundRect*
0 Rectangle with rounded corners*
0 $1 Rounding radius*
0 $2 $3 $4 $5 $6 $7 $8 $9 X,Y pos of 4 corners*
0 Add a 4 corners polygon primitive as box body*
4,1,4,$2,$3,$4,$5,$6,$7,$8,$9,$2,$3,0*
0 Add four circle primitives for the rounded corners*
1,1,$1+$1,$2,$3*
1,1,$1+$1,$4,$5*
1,1,$1+$1,$6,$7*
1,1,$1+$1,$8,$9*
0 Add four rect primitives between the rounded corners*
20,1,$1+$1,$2,$3,$4,$5,0*
20,1,$1+$1,$4,$5,$6,$7,0*
20,1,$1+$1,$6,$7,$8,$9,0*
20,1,$1+$1,$8,$9,$2,$3,0*%
G04 Aperture macros list end*
G04 #@! TA.AperFunction,ComponentPad*
%ADD10C,1.400000*%
G04 #@! TD*
G04 #@! TA.AperFunction,ComponentPad*
%ADD11R,1.000000X1.000000*%
G04 #@! TD*
G04 #@! TA.AperFunction,ComponentPad*
%ADD12O,1.000000X1.000000*%
G04 #@! TD*
G04 #@! TA.AperFunction,ComponentPad*
%ADD13C,1.524000*%
G04 #@! TD*
G04 #@! TA.AperFunction,ComponentPad*
%ADD14RoundRect,0.400000X-0.400000X-1.100000X0.400000X-1.100000X0.400000X1.100000X-0.400000X1.100000X0*%
G04 #@! TD*
G04 #@! TA.AperFunction,ViaPad*
%ADD15C,0.609600*%
G04 #@! TD*
G04 #@! TA.AperFunction,Conductor*
%ADD16C,0.203200*%
G04 #@! TD*
G04 APERTURE END LIST*
D10*
X-3810000Y11730000D03*
X-1270000Y11730000D03*
X1270000Y11730000D03*
X3810000Y11730000D03*
D11*
X-10300000Y-8500000D03*
D12*
X-10300000Y-7230000D03*
X-10300000Y-5960000D03*
X-10300000Y-4690000D03*
X-10300000Y-3420000D03*
D13*
X3500000Y-8000000D03*
X1000000Y-8000000D03*
X-1000000Y-8000000D03*
X-3500000Y-8000000D03*
D14*
X-5850000Y-10400000D03*
X5850000Y-10400000D03*
D15*
X8500000Y0D03*
X-11500000Y7350000D03*
X0Y0D03*
X-11500000Y-1000000D03*
X-4800000Y6150000D03*
X8500000Y-7000000D03*
X-3000000Y8500000D03*
X-3450000Y-4000000D03*
X-2850000Y750000D03*
X3500000Y7000000D03*
X-9400000Y4800000D03*
X-8550000Y-1100000D03*
X-4800000Y950000D03*
X-8550000Y-5950000D03*
X-4400000Y-1650000D03*
X-1900000Y7450000D03*
X-9400000Y3000000D03*
X550000Y1650000D03*
X1450000Y2550000D03*
X5000000Y8500000D03*
D16*
X-1900000Y-1100000D02*
X-1900000Y7450000D01*
X-8550000Y-1100000D02*
X-8550000Y500000D01*
X-8550000Y-5950000D02*
X-8550000Y-1600000D01*
X-5250000Y500000D02*
X-4800000Y950000D01*
X-8550000Y3950000D02*
X-9400000Y4800000D01*
X-8550000Y500000D02*
X-5250000Y500000D01*
X-8550000Y500000D02*
X-8550000Y3950000D01*
X-2450000Y-1650000D02*
X-1900000Y-1100000D01*
X-2450000Y-1650000D02*
X-4400000Y-1650000D01*
X-4400000Y-1650000D02*
X-8500000Y-1650000D01*
X-8500000Y-1650000D02*
X-8550000Y-1600000D01*
X-8550000Y-1600000D02*
X-8550000Y-1100000D01*
X-9400000Y-6330000D02*
X-9400000Y3000000D01*
X-10300000Y-7230000D02*
X-9400000Y-6330000D01*
X1270000Y11730000D02*
X570000Y11030000D01*
X570000Y1670000D02*
X550000Y1650000D01*
X570000Y11030000D02*
X570000Y1670000D01*
X3810000Y11730000D02*
X1450000Y9370000D01*
X1450000Y9370000D02*
X1450000Y2550000D01*
G04 #@! TA.AperFunction,Conductor*
G36*
X-3765968Y12029076D02*
G01*
X-3720905Y12000115D01*
X-2807514Y11086724D01*
X-2795739Y11080294D01*
X-2783724Y11089590D01*
X-2762999Y11119189D01*
X-2757521Y11128677D01*
X-2672841Y11310277D01*
X-2669092Y11320574D01*
X-2661966Y11347170D01*
X-2625014Y11407793D01*
X-2561154Y11438814D01*
X-2490659Y11430386D01*
X-2435912Y11385183D01*
X-2418553Y11347171D01*
X-2411382Y11320408D01*
X-2411378Y11320397D01*
X-2409956Y11315090D01*
X-2407634Y11310109D01*
X-2407633Y11310108D01*
X-2357018Y11201565D01*
X-2320589Y11123442D01*
X-2199301Y10950224D01*
X-2049776Y10800699D01*
X-1876558Y10679411D01*
X-1871580Y10677090D01*
X-1871577Y10677088D01*
X-1691826Y10593269D01*
X-1684910Y10590044D01*
X-1679602Y10588622D01*
X-1679600Y10588621D01*
X-1485970Y10536738D01*
X-1485968Y10536738D01*
X-1480655Y10535314D01*
X-1270000Y10516884D01*
X-1059345Y10535314D01*
X-1054032Y10536738D01*
X-1054030Y10536738D01*
X-860400Y10588621D01*
X-860398Y10588622D01*
X-855090Y10590044D01*
X-848174Y10593269D01*
X-668423Y10677088D01*
X-668420Y10677090D01*
X-663442Y10679411D01*
X-490224Y10800699D01*
X-340699Y10950224D01*
X-269312Y11052176D01*
X-213856Y11096503D01*
X-143237Y11103812D01*
X-79876Y11071782D01*
X-43891Y11010580D01*
X-40100Y10979904D01*
X-40100Y2263482D01*
X-60102Y2195361D01*
X-77943Y2173459D01*
X-84250Y2167282D01*
X-154549Y2058200D01*
X-176645Y2023913D01*
X-183092Y2013910D01*
X-185501Y2007290D01*
X-185503Y2007287D01*
X-243090Y1849068D01*
X-245498Y1842451D01*
X-268366Y1661427D01*
X-267679Y1654420D01*
X-267679Y1654417D01*
X-260617Y1582400D01*
X-250561Y1479836D01*
X-192967Y1306701D01*
X-189318Y1300676D01*
X-131503Y1205213D01*
X-98446Y1150629D01*
X-93555Y1145564D01*
X-93554Y1145563D01*
X-22620Y1072109D01*
X28303Y1019377D01*
X34195Y1015522D01*
X34199Y1015518D01*
X163190Y931109D01*
X180981Y919467D01*
X187585Y917011D01*
X187587Y917010D01*
X266490Y887666D01*
X352000Y855865D01*
X532860Y831733D01*
X539871Y832371D01*
X539875Y832371D01*
X679580Y845086D01*
X714571Y848271D01*
X721273Y850449D01*
X721275Y850449D01*
X881405Y902478D01*
X881408Y902479D01*
X888104Y904655D01*
X919256Y923225D01*
X1038777Y994473D01*
X1038780Y994475D01*
X1044832Y998083D01*
X1054642Y1007425D01*
X5536404Y1007425D01*
X5538313Y986446D01*
X5552309Y832665D01*
X5555218Y800697D01*
X5556956Y794791D01*
X5556957Y794787D01*
X5571180Y746461D01*
X5613827Y601560D01*
X5709999Y417600D01*
X5840071Y255823D01*
X5844788Y251865D01*
X5844790Y251863D01*
X5903645Y202478D01*
X5999089Y122391D01*
X6004481Y119427D01*
X6004485Y119424D01*
X6171473Y27622D01*
X6180995Y22387D01*
X6378861Y-40379D01*
X6384978Y-41065D01*
X6384982Y-41066D01*
X6460907Y-49582D01*
X6540413Y-58500D01*
X6652237Y-58500D01*
X6655293Y-58200D01*
X6655300Y-58200D01*
X6800466Y-43966D01*
X6800469Y-43965D01*
X6806592Y-43365D01*
X6938546Y-3526D01*
X6999407Y14848D01*
X6999410Y14849D01*
X7005315Y16632D01*
X7010762Y19528D01*
X7183153Y111191D01*
X7183155Y111192D01*
X7188599Y114087D01*
X7248471Y162917D01*
X7344689Y241390D01*
X7344692Y241393D01*
X7349464Y245285D01*
X7481783Y405230D01*
X7485876Y412799D01*
X7577584Y582410D01*
X7577586Y582415D01*
X7580514Y587830D01*
X7641898Y786129D01*
X7643429Y800697D01*
X7662952Y986446D01*
X7662952Y986448D01*
X7663596Y992575D01*
X7662245Y1007425D01*
X9536404Y1007425D01*
X9538313Y986446D01*
X9552309Y832665D01*
X9555218Y800697D01*
X9556956Y794791D01*
X9556957Y794787D01*
X9571180Y746461D01*
X9613827Y601560D01*
X9709999Y417600D01*
X9840071Y255823D01*
X9844788Y251865D01*
X9844790Y251863D01*
X9903645Y202478D01*
X9999089Y122391D01*
X10004481Y119427D01*
X10004485Y119424D01*
X10171473Y27622D01*
X10180995Y22387D01*
X10378861Y-40379D01*
X10384978Y-41065D01*
X10384982Y-41066D01*
X10460907Y-49582D01*
X10540413Y-58500D01*
X10652237Y-58500D01*
X10655293Y-58200D01*
X10655300Y-58200D01*
X10800466Y-43966D01*
X10800469Y-43965D01*
X10806592Y-43365D01*
X10938546Y-3526D01*
X10999407Y14848D01*
X10999410Y14849D01*
X11005315Y16632D01*
X11010762Y19528D01*
X11183153Y111191D01*
X11183155Y111192D01*
X11188599Y114087D01*
X11248471Y162917D01*
X11344689Y241390D01*
X11344692Y241393D01*
X11349464Y245285D01*
X11481783Y405230D01*
X11485876Y412799D01*
X11577584Y582410D01*
X11577586Y582415D01*
X11580514Y587830D01*
X11641898Y786129D01*
X11643429Y800697D01*
X11662952Y986446D01*
X11662952Y986448D01*
X11663596Y992575D01*
X11644782Y1199303D01*
X11642298Y1207745D01*
X11587912Y1392531D01*
X11586173Y1398440D01*
X11490001Y1582400D01*
X11359929Y1744177D01*
X11353760Y1749354D01*
X11205629Y1873650D01*
X11200911Y1877609D01*
X11195519Y1880573D01*
X11195515Y1880576D01*
X11024402Y1974646D01*
X11019005Y1977613D01*
X10821139Y2040379D01*
X10815022Y2041065D01*
X10815018Y2041066D01*
X10738402Y2049659D01*
X10659587Y2058500D01*
X10547763Y2058500D01*
X10544707Y2058200D01*
X10544700Y2058200D01*
X10399534Y2043966D01*
X10399531Y2043965D01*
X10393408Y2043365D01*
X10295847Y2013910D01*
X10200593Y1985152D01*
X10200590Y1985151D01*
X10194685Y1983368D01*
X10189240Y1980473D01*
X10189238Y1980472D01*
X10016847Y1888809D01*
X10016845Y1888808D01*
X10011401Y1885913D01*
X9958111Y1842451D01*
X9855311Y1758610D01*
X9855308Y1758607D01*
X9850536Y1754715D01*
X9846608Y1749967D01*
X9846607Y1749966D01*
X9799333Y1692822D01*
X9718217Y1594770D01*
X9715288Y1589353D01*
X9715286Y1589350D01*
X9622416Y1417590D01*
X9622414Y1417585D01*
X9619486Y1412170D01*
X9558102Y1213871D01*
X9557458Y1207746D01*
X9557458Y1207745D01*
X9537255Y1015518D01*
X9536404Y1007425D01*
X7662245Y1007425D01*
X7644782Y1199303D01*
X7642298Y1207745D01*
X7587912Y1392531D01*
X7586173Y1398440D01*
X7490001Y1582400D01*
X7359929Y1744177D01*
X7353760Y1749354D01*
X7205629Y1873650D01*
X7200911Y1877609D01*
X7195519Y1880573D01*
X7195515Y1880576D01*
X7024402Y1974646D01*
X7019005Y1977613D01*
X6821139Y2040379D01*
X6815022Y2041065D01*
X6815018Y2041066D01*
X6738402Y2049659D01*
X6659587Y2058500D01*
X6547763Y2058500D01*
X6544707Y2058200D01*
X6544700Y2058200D01*
X6399534Y2043966D01*
X6399531Y2043965D01*
X6393408Y2043365D01*
X6295847Y2013910D01*
X6200593Y1985152D01*
X6200590Y1985151D01*
X6194685Y1983368D01*
X6189240Y1980473D01*
X6189238Y1980472D01*
X6016847Y1888809D01*
X6016845Y1888808D01*
X6011401Y1885913D01*
X5958111Y1842451D01*
X5855311Y1758610D01*
X5855308Y1758607D01*
X5850536Y1754715D01*
X5846608Y1749967D01*
X5846607Y1749966D01*
X5799333Y1692822D01*
X5718217Y1594770D01*
X5715288Y1589353D01*
X5715286Y1589350D01*
X5622416Y1417590D01*
X5622414Y1417585D01*
X5619486Y1412170D01*
X5558102Y1213871D01*
X5557458Y1207746D01*
X5557458Y1207745D01*
X5537255Y1015518D01*
X5536404Y1007425D01*
X1054642Y1007425D01*
X1162877Y1110496D01*
X1171862Y1119052D01*
X1171864Y1119055D01*
X1176966Y1123913D01*
X1277939Y1275890D01*
X1322247Y1392531D01*
X1340233Y1439878D01*
X1340234Y1439883D01*
X1342733Y1446461D01*
X1368127Y1627148D01*
X1369829Y1626909D01*
X1392555Y1686778D01*
X1449637Y1728994D01*
X1481562Y1736165D01*
X1614571Y1748271D01*
X1621273Y1750449D01*
X1621275Y1750449D01*
X1781405Y1802478D01*
X1781408Y1802479D01*
X1788104Y1804655D01*
X1851508Y1842451D01*
X1938777Y1894473D01*
X1938780Y1894475D01*
X1944832Y1898083D01*
X2025231Y1974646D01*
X2071862Y2019052D01*
X2071864Y2019055D01*
X2076966Y2023913D01*
X2177939Y2175890D01*
X2211212Y2263482D01*
X2240233Y2339878D01*
X2240234Y2339883D01*
X2242733Y2346461D01*
X2255126Y2434643D01*
X2267576Y2523225D01*
X2267576Y2523230D01*
X2268127Y2527148D01*
X2268446Y2550000D01*
X2248107Y2731325D01*
X2188101Y2903639D01*
X2091411Y3058376D01*
X2087198Y3062619D01*
X2060717Y3128038D01*
X2060100Y3140494D01*
X2060100Y9065099D01*
X2080102Y9133220D01*
X2097005Y9154194D01*
X3452302Y10509491D01*
X3514614Y10543517D01*
X3574009Y10542102D01*
X3594023Y10536739D01*
X3594034Y10536737D01*
X3599345Y10535314D01*
X3810000Y10516884D01*
X4020655Y10535314D01*
X4025968Y10536738D01*
X4025970Y10536738D01*
X4219600Y10588621D01*
X4219602Y10588622D01*
X4224910Y10590044D01*
X4307251Y10628440D01*
X4377441Y10639101D01*
X4442254Y10610121D01*
X4481111Y10550702D01*
X4486500Y10514245D01*
X4486500Y9188495D01*
X4466498Y9120374D01*
X4448657Y9098471D01*
X4414579Y9065099D01*
X4365750Y9017282D01*
X4266908Y8863910D01*
X4204502Y8692451D01*
X4181634Y8511427D01*
X4199439Y8329836D01*
X4257033Y8156701D01*
X4260682Y8150676D01*
X4301760Y8082849D01*
X4351554Y8000629D01*
X4356445Y7995564D01*
X4356446Y7995563D01*
X4451137Y7897508D01*
X4484069Y7834612D01*
X4486500Y7809981D01*
X4486500Y5626000D01*
X4486860Y5622654D01*
X4486860Y5622649D01*
X4496083Y5536861D01*
X4498234Y5516851D01*
X4509620Y5464509D01*
X4544290Y5360343D01*
X4623308Y5237388D01*
X4669801Y5183732D01*
X4673194Y5180792D01*
X4773450Y5093919D01*
X4773453Y5093917D01*
X4780261Y5088018D01*
X4913210Y5027302D01*
X4936964Y5020327D01*
X4977008Y5008569D01*
X4977012Y5008568D01*
X4981331Y5007300D01*
X4985780Y5006660D01*
X4985786Y5006659D01*
X5121553Y4987139D01*
X5121558Y4987139D01*
X5126000Y4986500D01*
X11865500Y4986500D01*
X11933621Y4966498D01*
X11980114Y4912842D01*
X11991500Y4860500D01*
X11991500Y-12365500D01*
X11971498Y-12433621D01*
X11917842Y-12480114D01*
X11865500Y-12491500D01*
X6823669Y-12491500D01*
X6755548Y-12471498D01*
X6709055Y-12417842D01*
X6698951Y-12347568D01*
X6728445Y-12282988D01*
X6747684Y-12266235D01*
X6747257Y-12265708D01*
X6890459Y-12149745D01*
X6899745Y-12140459D01*
X7011552Y-12002390D01*
X7018705Y-11991375D01*
X7099365Y-11833070D01*
X7104069Y-11820817D01*
X7150267Y-11648403D01*
X7152214Y-11637069D01*
X7157807Y-11566010D01*
X7158000Y-11561085D01*
X7158000Y-10672115D01*
X7153525Y-10656876D01*
X7152135Y-10655671D01*
X7144452Y-10654000D01*
X4560115Y-10654000D01*
X4544876Y-10658475D01*
X4543671Y-10659865D01*
X4542000Y-10667548D01*
X4542000Y-11561085D01*
X4542193Y-11566010D01*
X4547786Y-11637069D01*
X4549733Y-11648403D01*
X4595931Y-11820817D01*
X4600635Y-11833070D01*
X4681295Y-11991375D01*
X4688448Y-12002390D01*
X4800255Y-12140459D01*
X4809541Y-12149745D01*
X4952743Y-12265708D01*
X4951414Y-12267349D01*
X4991198Y-12313715D01*
X5000960Y-12384038D01*
X4971153Y-12448474D01*
X4911241Y-12486567D01*
X4876331Y-12491500D01*
X-4876331Y-12491500D01*
X-4944452Y-12471498D01*
X-4990945Y-12417842D01*
X-5001049Y-12347568D01*
X-4971555Y-12282988D01*
X-4952316Y-12266235D01*
X-4952743Y-12265708D01*
X-4809541Y-12149745D01*
X-4800255Y-12140459D01*
X-4688448Y-12002390D01*
X-4681295Y-11991375D01*
X-4600635Y-11833070D01*
X-4595931Y-11820817D01*
X-4549733Y-11648403D01*
X-4547786Y-11637069D01*
X-4542193Y-11566010D01*
X-4542000Y-11561085D01*
X-4542000Y-10672115D01*
X-4546475Y-10656876D01*
X-4547865Y-10655671D01*
X-4555548Y-10654000D01*
X-7139885Y-10654000D01*
X-7155124Y-10658475D01*
X-7156329Y-10659865D01*
X-7158000Y-10667548D01*
X-7158000Y-11561085D01*
X-7157807Y-11566010D01*
X-7152214Y-11637069D01*
X-7150267Y-11648403D01*
X-7104069Y-11820817D01*
X-7099365Y-11833070D01*
X-7018705Y-11991375D01*
X-7011552Y-12002390D01*
X-6899745Y-12140459D01*
X-6890459Y-12149745D01*
X-6747257Y-12265708D01*
X-6748586Y-12267349D01*
X-6708802Y-12313715D01*
X-6699040Y-12384038D01*
X-6728847Y-12448474D01*
X-6788759Y-12486567D01*
X-6823669Y-12491500D01*
X-11865500Y-12491500D01*
X-11933621Y-12471498D01*
X-11980114Y-12417842D01*
X-11991500Y-12365500D01*
X-11991500Y-10392925D01*
X-3263355Y-10392925D01*
X-3245430Y-10589888D01*
X-3189590Y-10779619D01*
X-3186737Y-10785077D01*
X-3186735Y-10785081D01*
X-3139280Y-10875853D01*
X-3097960Y-10954890D01*
X-2974032Y-11109025D01*
X-2969308Y-11112989D01*
X-2962067Y-11119065D01*
X-2822526Y-11236154D01*
X-2817128Y-11239121D01*
X-2817123Y-11239125D01*
X-2673820Y-11317905D01*
X-2649213Y-11331433D01*
X-2643346Y-11333294D01*
X-2643344Y-11333295D01*
X-2466564Y-11389373D01*
X-2460694Y-11391235D01*
X-2306773Y-11408500D01*
X-2200231Y-11408500D01*
X-2197175Y-11408200D01*
X-2197168Y-11408200D01*
X-2138660Y-11402463D01*
X-2053167Y-11394080D01*
X-2047266Y-11392298D01*
X-2047264Y-11392298D01*
X-1973947Y-11370162D01*
X-1863831Y-11336916D01*
X-1689204Y-11244066D01*
X-1602938Y-11173709D01*
X-1540713Y-11122960D01*
X-1540710Y-11122957D01*
X-1535938Y-11119065D01*
X-1523656Y-11104219D01*
X-1413799Y-10971425D01*
X-1413797Y-10971421D01*
X-1409870Y-10966675D01*
X-1315802Y-10792701D01*
X-1257318Y-10603768D01*
X-1236645Y-10407075D01*
X-1237933Y-10392925D01*
X1236645Y-10392925D01*
X1254570Y-10589888D01*
X1310410Y-10779619D01*
X1313263Y-10785077D01*
X1313265Y-10785081D01*
X1360720Y-10875853D01*
X1402040Y-10954890D01*
X1525968Y-11109025D01*
X1530692Y-11112989D01*
X1537933Y-11119065D01*
X1677474Y-11236154D01*
X1682872Y-11239121D01*
X1682877Y-11239125D01*
X1826180Y-11317905D01*
X1850787Y-11331433D01*
X1856654Y-11333294D01*
X1856656Y-11333295D01*
X2033436Y-11389373D01*
X2039306Y-11391235D01*
X2193227Y-11408500D01*
X2299769Y-11408500D01*
X2302825Y-11408200D01*
X2302832Y-11408200D01*
X2361340Y-11402463D01*
X2446833Y-11394080D01*
X2452734Y-11392298D01*
X2452736Y-11392298D01*
X2526053Y-11370162D01*
X2636169Y-11336916D01*
X2810796Y-11244066D01*
X2897062Y-11173709D01*
X2959287Y-11122960D01*
X2959290Y-11122957D01*
X2964062Y-11119065D01*
X2976344Y-11104219D01*
X3086201Y-10971425D01*
X3086203Y-10971421D01*
X3090130Y-10966675D01*
X3184198Y-10792701D01*
X3242682Y-10603768D01*
X3263355Y-10407075D01*
X3245430Y-10210112D01*
X3189590Y-10020381D01*
X3179919Y-10001881D01*
X3100813Y-9850568D01*
X3097960Y-9845110D01*
X2974032Y-9690975D01*
X2967727Y-9685684D01*
X2951334Y-9671929D01*
X2822526Y-9563846D01*
X2817128Y-9560879D01*
X2817123Y-9560875D01*
X2654608Y-9471533D01*
X2654609Y-9471533D01*
X2649213Y-9468567D01*
X2643346Y-9466706D01*
X2643344Y-9466705D01*
X2466564Y-9410627D01*
X2466563Y-9410627D01*
X2460694Y-9408765D01*
X2306773Y-9391500D01*
X2200231Y-9391500D01*
X2197175Y-9391800D01*
X2197168Y-9391800D01*
X2138660Y-9397537D01*
X2053167Y-9405920D01*
X2047266Y-9407702D01*
X2047264Y-9407702D01*
X1973947Y-9429838D01*
X1863831Y-9463084D01*
X1689204Y-9555934D01*
X1602938Y-9626291D01*
X1540713Y-9677040D01*
X1540710Y-9677043D01*
X1535938Y-9680935D01*
X1532011Y-9685682D01*
X1532009Y-9685684D01*
X1413799Y-9828575D01*
X1413797Y-9828579D01*
X1409870Y-9833325D01*
X1315802Y-10007299D01*
X1257318Y-10196232D01*
X1236645Y-10392925D01*
X-1237933Y-10392925D01*
X-1254570Y-10210112D01*
X-1310410Y-10020381D01*
X-1320081Y-10001881D01*
X-1399187Y-9850568D01*
X-1402040Y-9845110D01*
X-1525968Y-9690975D01*
X-1532273Y-9685684D01*
X-1548666Y-9671929D01*
X-1677474Y-9563846D01*
X-1682872Y-9560879D01*
X-1682877Y-9560875D01*
X-1845392Y-9471533D01*
X-1845391Y-9471533D01*
X-1850787Y-9468567D01*
X-1856654Y-9466706D01*
X-1856656Y-9466705D01*
X-2033436Y-9410627D01*
X-2033437Y-9410627D01*
X-2039306Y-9408765D01*
X-2193227Y-9391500D01*
X-2299769Y-9391500D01*
X-2302825Y-9391800D01*
X-2302832Y-9391800D01*
X-2361340Y-9397537D01*
X-2446833Y-9405920D01*
X-2452734Y-9407702D01*
X-2452736Y-9407702D01*
X-2526053Y-9429838D01*
X-2636169Y-9463084D01*
X-2810796Y-9555934D01*
X-2897062Y-9626291D01*
X-2959287Y-9677040D01*
X-2959290Y-9677043D01*
X-2964062Y-9680935D01*
X-2967989Y-9685682D01*
X-2967991Y-9685684D01*
X-3086201Y-9828575D01*
X-3086203Y-9828579D01*
X-3090130Y-9833325D01*
X-3184198Y-10007299D01*
X-3242682Y-10196232D01*
X-3263355Y-10392925D01*
X-11991500Y-10392925D01*
X-11991500Y-10127885D01*
X-7158000Y-10127885D01*
X-7153525Y-10143124D01*
X-7152135Y-10144329D01*
X-7144452Y-10146000D01*
X-6122115Y-10146000D01*
X-6106876Y-10141525D01*
X-6105671Y-10140135D01*
X-6104000Y-10132452D01*
X-6104000Y-10127885D01*
X-5596000Y-10127885D01*
X-5591525Y-10143124D01*
X-5590135Y-10144329D01*
X-5582452Y-10146000D01*
X-4560115Y-10146000D01*
X-4544876Y-10141525D01*
X-4543671Y-10140135D01*
X-4542000Y-10132452D01*
X-4542000Y-9238916D01*
X-4542193Y-9233990D01*
X-4547786Y-9162931D01*
X-4549733Y-9151597D01*
X-4574604Y-9058777D01*
X-4194223Y-9058777D01*
X-4184926Y-9070793D01*
X-4141931Y-9100898D01*
X-4132445Y-9106376D01*
X-3941007Y-9195645D01*
X-3930715Y-9199391D01*
X-3726691Y-9254059D01*
X-3715896Y-9255962D01*
X-3505475Y-9274372D01*
X-3494525Y-9274372D01*
X-3284104Y-9255962D01*
X-3273309Y-9254059D01*
X-3069285Y-9199391D01*
X-3058993Y-9195645D01*
X-2867555Y-9106376D01*
X-2858069Y-9100898D01*
X-2814236Y-9070207D01*
X-2805861Y-9059729D01*
X-2812929Y-9046281D01*
X-3487188Y-8372022D01*
X-3501132Y-8364408D01*
X-3502965Y-8364539D01*
X-3509580Y-8368790D01*
X-4187793Y-9047003D01*
X-4194223Y-9058777D01*
X-4574604Y-9058777D01*
X-4595931Y-8979183D01*
X-4600635Y-8966930D01*
X-4645144Y-8879575D01*
X-4658248Y-8809798D01*
X-4631548Y-8744013D01*
X-4591502Y-8710841D01*
X-4546281Y-8687071D01*
X-3872022Y-8012812D01*
X-3865644Y-8001132D01*
X-3135592Y-8001132D01*
X-3135461Y-8002965D01*
X-3131210Y-8009580D01*
X-2452997Y-8687793D01*
X-2441223Y-8694223D01*
X-2429207Y-8684926D01*
X-2399103Y-8641932D01*
X-2393623Y-8632441D01*
X-2364471Y-8569925D01*
X-2317553Y-8516640D01*
X-2249276Y-8497179D01*
X-2181316Y-8517721D01*
X-2136081Y-8569925D01*
X-2106814Y-8632689D01*
X-2106811Y-8632694D01*
X-2104488Y-8637676D01*
X-2101332Y-8642183D01*
X-2101331Y-8642185D01*
X-1983967Y-8809798D01*
X-1976977Y-8819781D01*
X-1819781Y-8976977D01*
X-1815273Y-8980134D01*
X-1815270Y-8980136D01*
X-1770399Y-9011555D01*
X-1637677Y-9104488D01*
X-1632695Y-9106811D01*
X-1632690Y-9106814D01*
X-1442190Y-9195645D01*
X-1436196Y-9198440D01*
X-1430888Y-9199862D01*
X-1430886Y-9199863D01*
X-1365051Y-9217503D01*
X-1221463Y-9255978D01*
X-1000000Y-9275353D01*
X-778537Y-9255978D01*
X-634949Y-9217503D01*
X-569114Y-9199863D01*
X-569112Y-9199862D01*
X-563804Y-9198440D01*
X-557810Y-9195645D01*
X-367310Y-9106814D01*
X-367305Y-9106811D01*
X-362323Y-9104488D01*
X-229601Y-9011555D01*
X-184730Y-8980136D01*
X-184727Y-8980134D01*
X-180219Y-8976977D01*
X-89095Y-8885853D01*
X-26783Y-8851827D01*
X44032Y-8856892D01*
X89095Y-8885853D01*
X180219Y-8976977D01*
X184727Y-8980134D01*
X184730Y-8980136D01*
X229601Y-9011555D01*
X362323Y-9104488D01*
X367305Y-9106811D01*
X367310Y-9106814D01*
X557810Y-9195645D01*
X563804Y-9198440D01*
X569112Y-9199862D01*
X569114Y-9199863D01*
X634949Y-9217503D01*
X778537Y-9255978D01*
X1000000Y-9275353D01*
X1221463Y-9255978D01*
X1365051Y-9217503D01*
X1430886Y-9199863D01*
X1430888Y-9199862D01*
X1436196Y-9198440D01*
X1442190Y-9195645D01*
X1632690Y-9106814D01*
X1632695Y-9106811D01*
X1637677Y-9104488D01*
X1770399Y-9011555D01*
X1815270Y-8980136D01*
X1815273Y-8980134D01*
X1819781Y-8976977D01*
X1976977Y-8819781D01*
X1983968Y-8809798D01*
X2101331Y-8642185D01*
X2101332Y-8642183D01*
X2104488Y-8637676D01*
X2106811Y-8632694D01*
X2106814Y-8632689D01*
X2135805Y-8570517D01*
X2182723Y-8517232D01*
X2251000Y-8497771D01*
X2318960Y-8518313D01*
X2364195Y-8570517D01*
X2393186Y-8632689D01*
X2393189Y-8632694D01*
X2395512Y-8637676D01*
X2398668Y-8642183D01*
X2398669Y-8642185D01*
X2516033Y-8809798D01*
X2523023Y-8819781D01*
X2680219Y-8976977D01*
X2684727Y-8980134D01*
X2684730Y-8980136D01*
X2729601Y-9011555D01*
X2862323Y-9104488D01*
X2867305Y-9106811D01*
X2867310Y-9106814D01*
X3057810Y-9195645D01*
X3063804Y-9198440D01*
X3069112Y-9199862D01*
X3069114Y-9199863D01*
X3134949Y-9217503D01*
X3278537Y-9255978D01*
X3500000Y-9275353D01*
X3721463Y-9255978D01*
X3865051Y-9217503D01*
X3930886Y-9199863D01*
X3930888Y-9199862D01*
X3936196Y-9198440D01*
X3942190Y-9195645D01*
X4132690Y-9106814D01*
X4132695Y-9106811D01*
X4137677Y-9104488D01*
X4270399Y-9011555D01*
X4315270Y-8980136D01*
X4315273Y-8980134D01*
X4319781Y-8976977D01*
X4365309Y-8931449D01*
X4427621Y-8897423D01*
X4498436Y-8902488D01*
X4555272Y-8945035D01*
X4580083Y-9011555D01*
X4576111Y-9053155D01*
X4549733Y-9151598D01*
X4547786Y-9162931D01*
X4542193Y-9233990D01*
X4542000Y-9238916D01*
X4542000Y-10127885D01*
X4546475Y-10143124D01*
X4547865Y-10144329D01*
X4555548Y-10146000D01*
X5577885Y-10146000D01*
X5593124Y-10141525D01*
X5594329Y-10140135D01*
X5596000Y-10132452D01*
X5596000Y-10127885D01*
X6104000Y-10127885D01*
X6108475Y-10143124D01*
X6109865Y-10144329D01*
X6117548Y-10146000D01*
X7139885Y-10146000D01*
X7155124Y-10141525D01*
X7156329Y-10140135D01*
X7158000Y-10132452D01*
X7158000Y-9238916D01*
X7157807Y-9233990D01*
X7152214Y-9162931D01*
X7150267Y-9151597D01*
X7104069Y-8979183D01*
X7099365Y-8966930D01*
X7018705Y-8808625D01*
X7011552Y-8797610D01*
X6899745Y-8659541D01*
X6890459Y-8650255D01*
X6752390Y-8538448D01*
X6741375Y-8531295D01*
X6583070Y-8450635D01*
X6570817Y-8445931D01*
X6398403Y-8399733D01*
X6387069Y-8397786D01*
X6316010Y-8392193D01*
X6311084Y-8392000D01*
X6122115Y-8392000D01*
X6106876Y-8396475D01*
X6105671Y-8397865D01*
X6104000Y-8405548D01*
X6104000Y-10127885D01*
X5596000Y-10127885D01*
X5596000Y-8410115D01*
X5591525Y-8394876D01*
X5590135Y-8393671D01*
X5582452Y-8392000D01*
X5388916Y-8392000D01*
X5383990Y-8392193D01*
X5312931Y-8397786D01*
X5301597Y-8399733D01*
X5129183Y-8445931D01*
X5116930Y-8450635D01*
X4958625Y-8531295D01*
X4947610Y-8538448D01*
X4893904Y-8581939D01*
X4828377Y-8609265D01*
X4758479Y-8596825D01*
X4706402Y-8548571D01*
X4688680Y-8479822D01*
X4696190Y-8441021D01*
X4698440Y-8436196D01*
X4755978Y-8221463D01*
X4775353Y-8000000D01*
X4755978Y-7778537D01*
X4698440Y-7563804D01*
X4669727Y-7502229D01*
X4606814Y-7367311D01*
X4606811Y-7367306D01*
X4604488Y-7362324D01*
X4601331Y-7357815D01*
X4480136Y-7184730D01*
X4480134Y-7184727D01*
X4476977Y-7180219D01*
X4319781Y-7023023D01*
X4315273Y-7019866D01*
X4315270Y-7019864D01*
X4239505Y-6966813D01*
X4137677Y-6895512D01*
X4132695Y-6893189D01*
X4132690Y-6893186D01*
X3941178Y-6803883D01*
X3941177Y-6803882D01*
X3936196Y-6801560D01*
X3930888Y-6800138D01*
X3930886Y-6800137D01*
X3865051Y-6782497D01*
X3721463Y-6744022D01*
X3500000Y-6724647D01*
X3278537Y-6744022D01*
X3134949Y-6782497D01*
X3069114Y-6800137D01*
X3069112Y-6800138D01*
X3063804Y-6801560D01*
X3058823Y-6803882D01*
X3058822Y-6803883D01*
X2867311Y-6893186D01*
X2867306Y-6893189D01*
X2862324Y-6895512D01*
X2857817Y-6898668D01*
X2857815Y-6898669D01*
X2684730Y-7019864D01*
X2684727Y-7019866D01*
X2680219Y-7023023D01*
X2523023Y-7180219D01*
X2519866Y-7184727D01*
X2519864Y-7184730D01*
X2398669Y-7357815D01*
X2395512Y-7362324D01*
X2393189Y-7367306D01*
X2393186Y-7367311D01*
X2364195Y-7429483D01*
X2317277Y-7482768D01*
X2249000Y-7502229D01*
X2181040Y-7481687D01*
X2135805Y-7429483D01*
X2106814Y-7367311D01*
X2106811Y-7367306D01*
X2104488Y-7362324D01*
X2101331Y-7357815D01*
X1980136Y-7184730D01*
X1980134Y-7184727D01*
X1976977Y-7180219D01*
X1819781Y-7023023D01*
X1815273Y-7019866D01*
X1815270Y-7019864D01*
X1739505Y-6966813D01*
X1637677Y-6895512D01*
X1632695Y-6893189D01*
X1632690Y-6893186D01*
X1441178Y-6803883D01*
X1441177Y-6803882D01*
X1436196Y-6801560D01*
X1430888Y-6800138D01*
X1430886Y-6800137D01*
X1365051Y-6782497D01*
X1221463Y-6744022D01*
X1000000Y-6724647D01*
X778537Y-6744022D01*
X634949Y-6782497D01*
X569114Y-6800137D01*
X569112Y-6800138D01*
X563804Y-6801560D01*
X558823Y-6803882D01*
X558822Y-6803883D01*
X367311Y-6893186D01*
X367306Y-6893189D01*
X362324Y-6895512D01*
X357817Y-6898668D01*
X357815Y-6898669D01*
X184730Y-7019864D01*
X184727Y-7019866D01*
X180219Y-7023023D01*
X89095Y-7114147D01*
X26783Y-7148173D01*
X-44032Y-7143108D01*
X-89095Y-7114147D01*
X-180219Y-7023023D01*
X-184727Y-7019866D01*
X-184730Y-7019864D01*
X-260495Y-6966813D01*
X-362323Y-6895512D01*
X-367305Y-6893189D01*
X-367310Y-6893186D01*
X-558822Y-6803883D01*
X-558823Y-6803882D01*
X-563804Y-6801560D01*
X-569112Y-6800138D01*
X-569114Y-6800137D01*
X-634949Y-6782497D01*
X-778537Y-6744022D01*
X-1000000Y-6724647D01*
X-1221463Y-6744022D01*
X-1365051Y-6782497D01*
X-1430886Y-6800137D01*
X-1430888Y-6800138D01*
X-1436196Y-6801560D01*
X-1441177Y-6803882D01*
X-1441178Y-6803883D01*
X-1632689Y-6893186D01*
X-1632694Y-6893189D01*
X-1637676Y-6895512D01*
X-1642183Y-6898668D01*
X-1642185Y-6898669D01*
X-1815270Y-7019864D01*
X-1815273Y-7019866D01*
X-1819781Y-7023023D01*
X-1976977Y-7180219D01*
X-1980134Y-7184727D01*
X-1980136Y-7184730D01*
X-2101331Y-7357815D01*
X-2104488Y-7362324D01*
X-2106811Y-7367306D01*
X-2106814Y-7367311D01*
X-2136081Y-7430075D01*
X-2182999Y-7483360D01*
X-2251276Y-7502821D01*
X-2319236Y-7482279D01*
X-2364471Y-7430075D01*
X-2393623Y-7367559D01*
X-2399103Y-7358068D01*
X-2429794Y-7314235D01*
X-2440271Y-7305860D01*
X-2453718Y-7312928D01*
X-3127978Y-7987188D01*
X-3135592Y-8001132D01*
X-3865644Y-8001132D01*
X-3864408Y-7998868D01*
X-3864539Y-7997035D01*
X-3868790Y-7990420D01*
X-4547003Y-7312207D01*
X-4558777Y-7305777D01*
X-4570793Y-7315074D01*
X-4600897Y-7358068D01*
X-4606377Y-7367559D01*
X-4695645Y-7558993D01*
X-4699391Y-7569285D01*
X-4754059Y-7773309D01*
X-4755962Y-7784104D01*
X-4774372Y-7994525D01*
X-4774372Y-8005475D01*
X-4755962Y-8215896D01*
X-4754059Y-8226691D01*
X-4699390Y-8430719D01*
X-4695452Y-8441538D01*
X-4690949Y-8512392D01*
X-4725468Y-8574432D01*
X-4788048Y-8607961D01*
X-4858821Y-8602334D01*
X-4893147Y-8582552D01*
X-4947610Y-8538448D01*
X-4958625Y-8531295D01*
X-5116930Y-8450635D01*
X-5129183Y-8445931D01*
X-5301597Y-8399733D01*
X-5312931Y-8397786D01*
X-5383990Y-8392193D01*
X-5388916Y-8392000D01*
X-5577885Y-8392000D01*
X-5593124Y-8396475D01*
X-5594329Y-8397865D01*
X-5596000Y-8405548D01*
X-5596000Y-10127885D01*
X-6104000Y-10127885D01*
X-6104000Y-8410115D01*
X-6108475Y-8394876D01*
X-6109865Y-8393671D01*
X-6117548Y-8392000D01*
X-6311084Y-8392000D01*
X-6316010Y-8392193D01*
X-6387069Y-8397786D01*
X-6398403Y-8399733D01*
X-6570817Y-8445931D01*
X-6583070Y-8450635D01*
X-6741375Y-8531295D01*
X-6752390Y-8538448D01*
X-6890459Y-8650255D01*
X-6899745Y-8659541D01*
X-7011552Y-8797610D01*
X-7018705Y-8808625D01*
X-7099365Y-8966930D01*
X-7104069Y-8979183D01*
X-7150267Y-9151597D01*
X-7152214Y-9162931D01*
X-7157807Y-9233990D01*
X-7158000Y-9238916D01*
X-7158000Y-10127885D01*
X-11991500Y-10127885D01*
X-11991500Y-9044669D01*
X-11307999Y-9044669D01*
X-11307629Y-9051490D01*
X-11302105Y-9102352D01*
X-11298479Y-9117604D01*
X-11253324Y-9238054D01*
X-11244786Y-9253649D01*
X-11168285Y-9355724D01*
X-11155724Y-9368285D01*
X-11053649Y-9444786D01*
X-11038054Y-9453324D01*
X-10917606Y-9498478D01*
X-10902351Y-9502105D01*
X-10851486Y-9507631D01*
X-10844672Y-9508000D01*
X-10572115Y-9508000D01*
X-10556876Y-9503525D01*
X-10555671Y-9502135D01*
X-10554000Y-9494452D01*
X-10554000Y-9489884D01*
X-10046000Y-9489884D01*
X-10041525Y-9505123D01*
X-10040135Y-9506328D01*
X-10032452Y-9507999D01*
X-9755331Y-9507999D01*
X-9748510Y-9507629D01*
X-9697648Y-9502105D01*
X-9682396Y-9498479D01*
X-9561946Y-9453324D01*
X-9546351Y-9444786D01*
X-9444276Y-9368285D01*
X-9431715Y-9355724D01*
X-9355214Y-9253649D01*
X-9346676Y-9238054D01*
X-9301522Y-9117606D01*
X-9297895Y-9102351D01*
X-9292369Y-9051486D01*
X-9292000Y-9044672D01*
X-9292000Y-8772115D01*
X-9296475Y-8756876D01*
X-9297865Y-8755671D01*
X-9305548Y-8754000D01*
X-10027885Y-8754000D01*
X-10043124Y-8758475D01*
X-10044329Y-8759865D01*
X-10046000Y-8767548D01*
X-10046000Y-9489884D01*
X-10554000Y-9489884D01*
X-10554000Y-8772115D01*
X-10558475Y-8756876D01*
X-10559865Y-8755671D01*
X-10567548Y-8754000D01*
X-11289884Y-8754000D01*
X-11305123Y-8758475D01*
X-11306328Y-8759865D01*
X-11307999Y-8767548D01*
X-11307999Y-9044669D01*
X-11991500Y-9044669D01*
X-11991500Y-7215851D01*
X-11313281Y-7215851D01*
X-11312765Y-7221995D01*
X-11301360Y-7357815D01*
X-11296732Y-7412934D01*
X-11242217Y-7603050D01*
X-11239398Y-7608535D01*
X-11235598Y-7615929D01*
X-11222250Y-7685660D01*
X-11242333Y-7737468D01*
X-11240479Y-7738483D01*
X-11253323Y-7761942D01*
X-11298478Y-7882394D01*
X-11302105Y-7897649D01*
X-11307631Y-7948514D01*
X-11308000Y-7955328D01*
X-11308000Y-8227885D01*
X-11303525Y-8243124D01*
X-11302135Y-8244329D01*
X-11294452Y-8246000D01*
X-9310116Y-8246000D01*
X-9294877Y-8241525D01*
X-9293672Y-8240135D01*
X-9292001Y-8232452D01*
X-9292001Y-7955331D01*
X-9292371Y-7948510D01*
X-9297895Y-7897648D01*
X-9301521Y-7882396D01*
X-9346676Y-7761946D01*
X-9359522Y-7738483D01*
X-9357398Y-7737320D01*
X-9377687Y-7683007D01*
X-9371571Y-7634183D01*
X-9358133Y-7593787D01*
X-9311803Y-7454513D01*
X-9287015Y-7258295D01*
X-9286620Y-7230000D01*
X-9294253Y-7152151D01*
X-9280993Y-7082404D01*
X-9257949Y-7050761D01*
X-9147459Y-6940271D01*
X-4194140Y-6940271D01*
X-4187072Y-6953718D01*
X-3512812Y-7627978D01*
X-3498868Y-7635592D01*
X-3497035Y-7635461D01*
X-3490420Y-7631210D01*
X-2812207Y-6952997D01*
X-2805777Y-6941223D01*
X-2815074Y-6929207D01*
X-2858069Y-6899102D01*
X-2867555Y-6893624D01*
X-3058993Y-6804355D01*
X-3069285Y-6800609D01*
X-3273309Y-6745941D01*
X-3284104Y-6744038D01*
X-3494525Y-6725628D01*
X-3505475Y-6725628D01*
X-3715896Y-6744038D01*
X-3726691Y-6745941D01*
X-3930715Y-6800609D01*
X-3941007Y-6804355D01*
X-4132441Y-6893623D01*
X-4141932Y-6899103D01*
X-4185765Y-6929794D01*
X-4194140Y-6940271D01*
X-9147459Y-6940271D01*
X-9022110Y-6814922D01*
X-9014295Y-6807810D01*
X-9008017Y-6803826D01*
X-8963170Y-6756069D01*
X-8960415Y-6753227D01*
X-8953404Y-6746216D01*
X-8891092Y-6712190D01*
X-8820389Y-6717214D01*
X-8754605Y-6741679D01*
X-8754602Y-6741680D01*
X-8748000Y-6744135D01*
X-8741021Y-6745066D01*
X-8741018Y-6745067D01*
X-8679859Y-6753227D01*
X-8567140Y-6768267D01*
X-8560129Y-6767629D01*
X-8560125Y-6767629D01*
X-8417425Y-6754641D01*
X-8385429Y-6751729D01*
X-8378727Y-6749551D01*
X-8378725Y-6749551D01*
X-8218595Y-6697522D01*
X-8218592Y-6697521D01*
X-8211896Y-6695345D01*
X-8148366Y-6657474D01*
X-8061223Y-6605527D01*
X-8061220Y-6605525D01*
X-8055168Y-6601917D01*
X-7962623Y-6513787D01*
X-7928138Y-6480948D01*
X-7928136Y-6480945D01*
X-7923034Y-6476087D01*
X-7822061Y-6324110D01*
X-7807062Y-6284625D01*
X-7759767Y-6160122D01*
X-7759766Y-6160117D01*
X-7757267Y-6153539D01*
X-7756287Y-6146567D01*
X-7732424Y-5976775D01*
X-7732424Y-5976770D01*
X-7731873Y-5972852D01*
X-7731554Y-5950000D01*
X-7751893Y-5768675D01*
X-7811899Y-5596361D01*
X-7908589Y-5441624D01*
X-7912802Y-5437381D01*
X-7939283Y-5371962D01*
X-7939900Y-5359506D01*
X-7939900Y-2386100D01*
X-7919898Y-2317979D01*
X-7866242Y-2271486D01*
X-7813900Y-2260100D01*
X-4990621Y-2260100D01*
X-4921628Y-2280668D01*
X-4769019Y-2380533D01*
X-4762415Y-2382989D01*
X-4762413Y-2382990D01*
X-4698807Y-2406645D01*
X-4598000Y-2444135D01*
X-4417140Y-2468267D01*
X-4410129Y-2467629D01*
X-4410125Y-2467629D01*
X-4260162Y-2453980D01*
X-4235429Y-2451729D01*
X-4228727Y-2449551D01*
X-4228725Y-2449551D01*
X-4068595Y-2397522D01*
X-4068592Y-2397521D01*
X-4061896Y-2395345D01*
X-4037048Y-2380533D01*
X-3911223Y-2305527D01*
X-3911220Y-2305525D01*
X-3905168Y-2301917D01*
X-3897749Y-2294852D01*
X-3895920Y-2293911D01*
X-3894457Y-2292800D01*
X-3894262Y-2293057D01*
X-3834626Y-2262362D01*
X-3810860Y-2260100D01*
X-2525678Y-2260100D01*
X-2515126Y-2260598D01*
X-2507872Y-2262219D01*
X-2442405Y-2260162D01*
X-2438448Y-2260100D01*
X-2411617Y-2260100D01*
X-2407690Y-2259604D01*
X-2406784Y-2259547D01*
X-2396140Y-2258708D01*
X-2353801Y-2257378D01*
X-2335414Y-2252036D01*
X-2316057Y-2248028D01*
X-2304935Y-2246623D01*
X-2304934Y-2246623D01*
X-2297068Y-2245629D01*
X-2286496Y-2241444D01*
X-2257682Y-2230036D01*
X-2246455Y-2226192D01*
X-2213391Y-2216585D01*
X-2213389Y-2216584D01*
X-2205775Y-2214372D01*
X-2189295Y-2204626D01*
X-2171555Y-2195935D01*
X-2153746Y-2188884D01*
X-2119468Y-2163980D01*
X-2109548Y-2157464D01*
X-2079921Y-2139943D01*
X-2079918Y-2139941D01*
X-2073094Y-2135905D01*
X-2059567Y-2122378D01*
X-2044533Y-2109537D01*
X-2035453Y-2102940D01*
X-2035452Y-2102939D01*
X-2029038Y-2098279D01*
X-2002026Y-2065627D01*
X-1994037Y-2056848D01*
X-1522117Y-1584928D01*
X-1514299Y-1577812D01*
X-1508017Y-1573826D01*
X-1463155Y-1526053D01*
X-1460400Y-1523211D01*
X-1441454Y-1504265D01*
X-1439019Y-1501126D01*
X-1438446Y-1500476D01*
X-1431499Y-1492345D01*
X-1407926Y-1467241D01*
X-1407924Y-1467238D01*
X-1402496Y-1461458D01*
X-1398676Y-1454510D01*
X-1393272Y-1444680D01*
X-1382416Y-1428153D01*
X-1375545Y-1419295D01*
X-1370688Y-1413034D01*
X-1353868Y-1374165D01*
X-1348646Y-1363505D01*
X-1348015Y-1362358D01*
X-1328235Y-1326378D01*
X-1323475Y-1307838D01*
X-1317071Y-1289133D01*
X-1312618Y-1278843D01*
X-1309469Y-1271566D01*
X-1308229Y-1263734D01*
X-1308227Y-1263729D01*
X-1302840Y-1229721D01*
X-1300434Y-1218099D01*
X-1289900Y-1177074D01*
X-1289900Y-1157937D01*
X-1288349Y-1138226D01*
X-1286594Y-1127146D01*
X-1286594Y-1127144D01*
X-1285354Y-1119316D01*
X-1289341Y-1077139D01*
X-1289900Y-1065281D01*
X-1289900Y6860486D01*
X-1268848Y6930213D01*
X-1175962Y7070019D01*
X-1172061Y7075890D01*
X-1157062Y7115375D01*
X-1109767Y7239878D01*
X-1109766Y7239883D01*
X-1107267Y7246461D01*
X-1081873Y7427148D01*
X-1081554Y7450000D01*
X-1101893Y7631325D01*
X-1161899Y7803639D01*
X-1258589Y7958376D01*
X-1323153Y8023392D01*
X-1382196Y8082849D01*
X-1382200Y8082852D01*
X-1387159Y8087846D01*
X-1398343Y8094944D01*
X-1446549Y8125536D01*
X-1541217Y8185614D01*
X-1647910Y8223606D01*
X-1706473Y8244460D01*
X-1706475Y8244461D01*
X-1713107Y8246822D01*
X-1720093Y8247655D01*
X-1720097Y8247656D01*
X-1849674Y8263106D01*
X-1894286Y8268426D01*
X-1901289Y8267690D01*
X-1901290Y8267690D01*
X-1947525Y8262830D01*
X-2075749Y8249354D01*
X-2082417Y8247084D01*
X-2241810Y8192822D01*
X-2241813Y8192821D01*
X-2248477Y8190552D01*
X-2403886Y8094944D01*
X-2408919Y8090015D01*
X-2505370Y7995563D01*
X-2534250Y7967282D01*
X-2633092Y7813910D01*
X-2635501Y7807290D01*
X-2635503Y7807287D01*
X-2693090Y7649068D01*
X-2695498Y7642451D01*
X-2718366Y7461427D01*
X-2717679Y7454420D01*
X-2717679Y7454417D01*
X-2708033Y7356043D01*
X-2700561Y7279836D01*
X-2642967Y7106701D01*
X-2548446Y6950629D01*
X-2543548Y6945557D01*
X-2539256Y6939984D01*
X-2540859Y6938749D01*
X-2512531Y6884643D01*
X-2510100Y6860014D01*
X-2510100Y-795098D01*
X-2530102Y-863219D01*
X-2547005Y-884193D01*
X-2665807Y-1002995D01*
X-2728119Y-1037021D01*
X-2754902Y-1039900D01*
X-3809532Y-1039900D01*
X-3877653Y-1019898D01*
X-3884030Y-1015305D01*
X-3887159Y-1012154D01*
X-3893107Y-1008380D01*
X-3893111Y-1008376D01*
X-4019850Y-927946D01*
X-4041217Y-914386D01*
X-4147910Y-876394D01*
X-4206473Y-855540D01*
X-4206475Y-855539D01*
X-4213107Y-853178D01*
X-4220093Y-852345D01*
X-4220097Y-852344D01*
X-4349674Y-836894D01*
X-4394286Y-831574D01*
X-4401289Y-832310D01*
X-4401290Y-832310D01*
X-4447525Y-837170D01*
X-4575749Y-850646D01*
X-4582417Y-852916D01*
X-4741810Y-907178D01*
X-4741813Y-907179D01*
X-4748477Y-909448D01*
X-4903886Y-1005056D01*
X-4908920Y-1009986D01*
X-4913020Y-1013189D01*
X-4979014Y-1039367D01*
X-4990594Y-1039900D01*
X-7625638Y-1039900D01*
X-7693759Y-1019898D01*
X-7740252Y-966242D01*
X-7750853Y-927946D01*
X-7751108Y-925675D01*
X-7751893Y-918675D01*
X-7811899Y-746361D01*
X-7908589Y-591624D01*
X-7912802Y-587381D01*
X-7939283Y-521962D01*
X-7939900Y-509506D01*
X-7939900Y-236100D01*
X-7919898Y-167979D01*
X-7866242Y-121486D01*
X-7813900Y-110100D01*
X-5325678Y-110100D01*
X-5315126Y-110598D01*
X-5307872Y-112219D01*
X-5242405Y-110162D01*
X-5238448Y-110100D01*
X-5211617Y-110100D01*
X-5207690Y-109604D01*
X-5206784Y-109547D01*
X-5196140Y-108708D01*
X-5153801Y-107378D01*
X-5135414Y-102036D01*
X-5116057Y-98028D01*
X-5104935Y-96623D01*
X-5104934Y-96623D01*
X-5097068Y-95629D01*
X-5086496Y-91444D01*
X-5057682Y-80036D01*
X-5046455Y-76192D01*
X-5013391Y-66585D01*
X-5013389Y-66584D01*
X-5005775Y-64372D01*
X-4989295Y-54626D01*
X-4971555Y-45935D01*
X-4953746Y-38884D01*
X-4919468Y-13980D01*
X-4909548Y-7464D01*
X-4879921Y10057D01*
X-4879918Y10059D01*
X-4873094Y14095D01*
X-4859567Y27622D01*
X-4844533Y40463D01*
X-4835453Y47060D01*
X-4835452Y47061D01*
X-4829038Y51721D01*
X-4802027Y84372D01*
X-4794037Y93152D01*
X-4781532Y105657D01*
X-4719220Y139683D01*
X-4703858Y142043D01*
X-4698998Y142485D01*
X-4635429Y148271D01*
X-4619089Y153580D01*
X-4468595Y202478D01*
X-4468592Y202479D01*
X-4461896Y204655D01*
X-4368008Y260623D01*
X-4311223Y294473D01*
X-4311220Y294475D01*
X-4305168Y298083D01*
X-4186961Y410650D01*
X-4178138Y419052D01*
X-4178136Y419055D01*
X-4173034Y423913D01*
X-4072061Y575890D01*
X-4057062Y615375D01*
X-4009767Y739878D01*
X-4009766Y739883D01*
X-4007267Y746461D01*
X-4000475Y794787D01*
X-3982424Y923225D01*
X-3982424Y923230D01*
X-3981873Y927148D01*
X-3981554Y950000D01*
X-4001893Y1131325D01*
X-4061899Y1303639D01*
X-4158589Y1458376D01*
X-4223153Y1523392D01*
X-4282196Y1582849D01*
X-4282200Y1582852D01*
X-4287159Y1587846D01*
X-4298343Y1594944D01*
X-4349089Y1627148D01*
X-4441217Y1685614D01*
X-4563041Y1728994D01*
X-4606473Y1744460D01*
X-4606475Y1744461D01*
X-4613107Y1746822D01*
X-4620093Y1747655D01*
X-4620097Y1747656D01*
X-4749674Y1763106D01*
X-4794286Y1768426D01*
X-4801289Y1767690D01*
X-4801290Y1767690D01*
X-4847525Y1762830D01*
X-4975749Y1749354D01*
X-4982417Y1747084D01*
X-5141810Y1692822D01*
X-5141813Y1692821D01*
X-5148477Y1690552D01*
X-5303886Y1594944D01*
X-5308919Y1590015D01*
X-5421430Y1479836D01*
X-5434250Y1467282D01*
X-5533092Y1313910D01*
X-5535501Y1307290D01*
X-5535503Y1307287D01*
X-5577098Y1193005D01*
X-5619192Y1135834D01*
X-5685514Y1110496D01*
X-5695499Y1110100D01*
X-7813900Y1110100D01*
X-7882021Y1130102D01*
X-7928514Y1183758D01*
X-7939900Y1236100D01*
X-7939900Y3874319D01*
X-7939403Y3884868D01*
X-7937780Y3892128D01*
X-7939838Y3957613D01*
X-7939900Y3961571D01*
X-7939900Y3988383D01*
X-7940396Y3992309D01*
X-7940450Y3993165D01*
X-7941292Y4003861D01*
X-7942373Y4038279D01*
X-7942373Y4038280D01*
X-7942622Y4046199D01*
X-7944833Y4053811D01*
X-7944834Y4053815D01*
X-7947964Y4064592D01*
X-7951972Y4083944D01*
X-7952109Y4085031D01*
X-7954371Y4102932D01*
X-7969965Y4142317D01*
X-7973803Y4153525D01*
X-7985627Y4194225D01*
X-7989660Y4201045D01*
X-7989663Y4201051D01*
X-7995372Y4210703D01*
X-8004067Y4228450D01*
X-8011116Y4246254D01*
X-8015780Y4252674D01*
X-8015782Y4252677D01*
X-8036017Y4280529D01*
X-8042525Y4290434D01*
X-8064094Y4326906D01*
X-8077626Y4340438D01*
X-8090468Y4355473D01*
X-8101721Y4370962D01*
X-8134367Y4397969D01*
X-8143147Y4405959D01*
X-8555957Y4818769D01*
X-8589983Y4881081D01*
X-8592077Y4893818D01*
X-8601108Y4974327D01*
X-8601893Y4981325D01*
X-8661899Y5153639D01*
X-8758589Y5308376D01*
X-8823153Y5373392D01*
X-8882196Y5432849D01*
X-8882200Y5432852D01*
X-8887159Y5437846D01*
X-8898343Y5444944D01*
X-9006450Y5513550D01*
X-9041217Y5535614D01*
X-9147910Y5573606D01*
X-9206473Y5594460D01*
X-9206475Y5594461D01*
X-9213107Y5596822D01*
X-9220093Y5597655D01*
X-9220097Y5597656D01*
X-9349674Y5613106D01*
X-9394286Y5618426D01*
X-9401289Y5617690D01*
X-9401290Y5617690D01*
X-9447525Y5612830D01*
X-9575749Y5599354D01*
X-9582417Y5597084D01*
X-9741810Y5542822D01*
X-9741813Y5542821D01*
X-9748477Y5540552D01*
X-9792368Y5513550D01*
X-9872083Y5464509D01*
X-9903886Y5444944D01*
X-10034250Y5317282D01*
X-10133092Y5163910D01*
X-10135501Y5157290D01*
X-10135503Y5157287D01*
X-10190327Y5006659D01*
X-10195498Y4992451D01*
X-10218366Y4811427D01*
X-10200561Y4629836D01*
X-10142967Y4456701D01*
X-10139318Y4450676D01*
X-10060228Y4320084D01*
X-10048446Y4300629D01*
X-9921697Y4169377D01*
X-9915805Y4165522D01*
X-9915801Y4165518D01*
X-9776107Y4074105D01*
X-9769019Y4069467D01*
X-9762415Y4067011D01*
X-9762413Y4067010D01*
X-9629110Y4017435D01*
X-9572234Y3974943D01*
X-9547360Y3908446D01*
X-9562385Y3839058D01*
X-9612540Y3788808D01*
X-9632424Y3780060D01*
X-9741810Y3742822D01*
X-9741813Y3742821D01*
X-9748477Y3740552D01*
X-9903886Y3644944D01*
X-10034250Y3517282D01*
X-10133092Y3363910D01*
X-10195498Y3192451D01*
X-10218366Y3011427D01*
X-10200561Y2829836D01*
X-10142967Y2656701D01*
X-10048446Y2500629D01*
X-10043548Y2495557D01*
X-10039256Y2489984D01*
X-10040859Y2488749D01*
X-10012531Y2434643D01*
X-10010100Y2410014D01*
X-10010100Y-2296434D01*
X-10030102Y-2364555D01*
X-10083758Y-2411048D01*
X-10149269Y-2421744D01*
X-10292925Y-2406645D01*
X-10375424Y-2414153D01*
X-10483749Y-2424011D01*
X-10483752Y-2424012D01*
X-10489888Y-2424570D01*
X-10495794Y-2426308D01*
X-10495798Y-2426309D01*
X-10582168Y-2451729D01*
X-10679619Y-2480410D01*
X-10685077Y-2483263D01*
X-10685081Y-2483265D01*
X-10775853Y-2530720D01*
X-10854890Y-2572040D01*
X-11009025Y-2695968D01*
X-11136154Y-2847474D01*
X-11139121Y-2852872D01*
X-11139125Y-2852877D01*
X-11217905Y-2996180D01*
X-11231433Y-3020787D01*
X-11291235Y-3209306D01*
X-11313281Y-3405851D01*
X-11296732Y-3602934D01*
X-11242217Y-3793050D01*
X-11151813Y-3968956D01*
X-11147984Y-3973787D01*
X-11146161Y-3976088D01*
X-11145586Y-3977509D01*
X-11144647Y-3978966D01*
X-11144924Y-3979144D01*
X-11119526Y-4041898D01*
X-11132699Y-4111662D01*
X-11136154Y-4117474D01*
X-11231433Y-4290787D01*
X-11291235Y-4479306D01*
X-11313281Y-4675851D01*
X-11296732Y-4872934D01*
X-11242217Y-5063050D01*
X-11151813Y-5238956D01*
X-11147984Y-5243787D01*
X-11146161Y-5246088D01*
X-11145586Y-5247509D01*
X-11144647Y-5248966D01*
X-11144924Y-5249144D01*
X-11119526Y-5311898D01*
X-11132699Y-5381662D01*
X-11136154Y-5387474D01*
X-11231433Y-5560787D01*
X-11291235Y-5749306D01*
X-11313281Y-5945851D01*
X-11296732Y-6142934D01*
X-11295033Y-6148858D01*
X-11246669Y-6317523D01*
X-11242217Y-6333050D01*
X-11239398Y-6338535D01*
X-11168705Y-6476087D01*
X-11151813Y-6508956D01*
X-11147984Y-6513787D01*
X-11146161Y-6516088D01*
X-11145586Y-6517509D01*
X-11144647Y-6518966D01*
X-11144924Y-6519144D01*
X-11119526Y-6581898D01*
X-11132699Y-6651662D01*
X-11136154Y-6657474D01*
X-11231433Y-6830787D01*
X-11233294Y-6836654D01*
X-11233295Y-6836656D01*
X-11270429Y-6953718D01*
X-11291235Y-7019306D01*
X-11313281Y-7215851D01*
X-11991500Y-7215851D01*
X-11991500Y7874000D01*
X-11971498Y7942121D01*
X-11917842Y7988614D01*
X-11865500Y8000000D01*
X-4400000Y8000000D01*
X-4400000Y10474870D01*
X-4379998Y10542991D01*
X-4326342Y10589484D01*
X-4256068Y10599588D01*
X-4230900Y10593269D01*
X-4219431Y10589094D01*
X-4025878Y10537231D01*
X-4015091Y10535329D01*
X-3815475Y10517865D01*
X-3804525Y10517865D01*
X-3604909Y10535329D01*
X-3594122Y10537231D01*
X-3400571Y10589093D01*
X-3390277Y10592841D01*
X-3208677Y10677521D01*
X-3199189Y10682999D01*
X-3168752Y10704311D01*
X-3160377Y10714788D01*
X-3167446Y10728236D01*
X-4080115Y11640905D01*
X-4114141Y11703217D01*
X-4109076Y11774032D01*
X-4080115Y11819095D01*
X-3899095Y12000115D01*
X-3836783Y12034141D01*
X-3765968Y12029076D01*
G37*
G04 #@! TD.AperFunction*
G04 #@! TA.AperFunction,Conductor*
G36*
X11942121Y12479998D02*
G01*
X11988614Y12426342D01*
X12000000Y12374000D01*
X12000000Y5626000D01*
X11979998Y5557879D01*
X11926342Y5511386D01*
X11874000Y5500000D01*
X5126000Y5500000D01*
X5057879Y5520002D01*
X5011386Y5573658D01*
X5000000Y5626000D01*
X5000000Y12374000D01*
X5020002Y12442121D01*
X5073658Y12488614D01*
X5126000Y12500000D01*
X11874000Y12500000D01*
X11942121Y12479998D01*
G37*
G04 #@! TD.AperFunction*
M02*
