G04 #@! TF.GenerationSoftware,KiCad,Pcbnew,(6.0.9)*
G04 #@! TF.CreationDate,2023-01-08T15:40:12+09:00*
G04 #@! TF.ProjectId,WBMon,57424d6f-6e2e-46b6-9963-61645f706362,1.0*
G04 #@! TF.SameCoordinates,Original*
G04 #@! TF.FileFunction,Legend,Bot*
G04 #@! TF.FilePolarity,Positive*
%FSLAX46Y46*%
G04 Gerber Fmt 4.6, Leading zero omitted, Abs format (unit mm)*
G04 Created by KiCad (PCBNEW (6.0.9)) date 2023-01-08 15:40:12*
%MOMM*%
%LPD*%
G01*
G04 APERTURE LIST*
%ADD10C,0.150000*%
G04 APERTURE END LIST*
D10*
X4404761Y-4452380D02*
X4166666Y-5452380D01*
X3976190Y-4738095D01*
X3785714Y-5452380D01*
X3547619Y-4452380D01*
X2833333Y-4928571D02*
X2690476Y-4976190D01*
X2642857Y-5023809D01*
X2595238Y-5119047D01*
X2595238Y-5261904D01*
X2642857Y-5357142D01*
X2690476Y-5404761D01*
X2785714Y-5452380D01*
X3166666Y-5452380D01*
X3166666Y-4452380D01*
X2833333Y-4452380D01*
X2738095Y-4500000D01*
X2690476Y-4547619D01*
X2642857Y-4642857D01*
X2642857Y-4738095D01*
X2690476Y-4833333D01*
X2738095Y-4880952D01*
X2833333Y-4928571D01*
X3166666Y-4928571D01*
X2166666Y-5452380D02*
X2166666Y-4452380D01*
X1833333Y-5166666D01*
X1500000Y-4452380D01*
X1500000Y-5452380D01*
X880952Y-5452380D02*
X976190Y-5404761D01*
X1023809Y-5357142D01*
X1071428Y-5261904D01*
X1071428Y-4976190D01*
X1023809Y-4880952D01*
X976190Y-4833333D01*
X880952Y-4785714D01*
X738095Y-4785714D01*
X642857Y-4833333D01*
X595238Y-4880952D01*
X547619Y-4976190D01*
X547619Y-5261904D01*
X595238Y-5357142D01*
X642857Y-5404761D01*
X738095Y-5452380D01*
X880952Y-5452380D01*
X119047Y-4785714D02*
X119047Y-5452380D01*
X119047Y-4880952D02*
X71428Y-4833333D01*
X-23809Y-4785714D01*
X-166666Y-4785714D01*
X-261904Y-4833333D01*
X-309523Y-4928571D01*
X-309523Y-5452380D01*
X-1404761Y-4452380D02*
X-1738095Y-5452380D01*
X-2071428Y-4452380D01*
X-2928571Y-5452380D02*
X-2357142Y-5452380D01*
X-2642857Y-5452380D02*
X-2642857Y-4452380D01*
X-2547619Y-4595238D01*
X-2452380Y-4690476D01*
X-2357142Y-4738095D01*
X-3357142Y-5357142D02*
X-3404761Y-5404761D01*
X-3357142Y-5452380D01*
X-3309523Y-5404761D01*
X-3357142Y-5357142D01*
X-3357142Y-5452380D01*
X-4023809Y-4452380D02*
X-4119047Y-4452380D01*
X-4214285Y-4500000D01*
X-4261904Y-4547619D01*
X-4309523Y-4642857D01*
X-4357142Y-4833333D01*
X-4357142Y-5071428D01*
X-4309523Y-5261904D01*
X-4261904Y-5357142D01*
X-4214285Y-5404761D01*
X-4119047Y-5452380D01*
X-4023809Y-5452380D01*
X-3928571Y-5404761D01*
X-3880952Y-5357142D01*
X-3833333Y-5261904D01*
X-3785714Y-5071428D01*
X-3785714Y-4833333D01*
X-3833333Y-4642857D01*
X-3880952Y-4547619D01*
X-3928571Y-4500000D01*
X-4023809Y-4452380D01*
X5380952Y-3404761D02*
X5238095Y-3452380D01*
X5000000Y-3452380D01*
X4904761Y-3404761D01*
X4857142Y-3357142D01*
X4809523Y-3261904D01*
X4809523Y-3166666D01*
X4857142Y-3071428D01*
X4904761Y-3023809D01*
X5000000Y-2976190D01*
X5190476Y-2928571D01*
X5285714Y-2880952D01*
X5333333Y-2833333D01*
X5380952Y-2738095D01*
X5380952Y-2642857D01*
X5333333Y-2547619D01*
X5285714Y-2500000D01*
X5190476Y-2452380D01*
X4952380Y-2452380D01*
X4809523Y-2500000D01*
X4523809Y-2452380D02*
X3952380Y-2452380D01*
X4238095Y-3452380D02*
X4238095Y-2452380D01*
X3619047Y-3452380D02*
X3619047Y-2452380D01*
X3285714Y-3166666D01*
X2952380Y-2452380D01*
X2952380Y-3452380D01*
X2571428Y-2452380D02*
X1952380Y-2452380D01*
X2285714Y-2833333D01*
X2142857Y-2833333D01*
X2047619Y-2880952D01*
X2000000Y-2928571D01*
X1952380Y-3023809D01*
X1952380Y-3261904D01*
X2000000Y-3357142D01*
X2047619Y-3404761D01*
X2142857Y-3452380D01*
X2428571Y-3452380D01*
X2523809Y-3404761D01*
X2571428Y-3357142D01*
X1571428Y-2547619D02*
X1523809Y-2500000D01*
X1428571Y-2452380D01*
X1190476Y-2452380D01*
X1095238Y-2500000D01*
X1047619Y-2547619D01*
X1000000Y-2642857D01*
X1000000Y-2738095D01*
X1047619Y-2880952D01*
X1619047Y-3452380D01*
X1000000Y-3452380D01*
X666666Y-2452380D02*
X428571Y-3452380D01*
X238095Y-2738095D01*
X47619Y-3452380D01*
X-190476Y-2452380D01*
X-904761Y-2928571D02*
X-1047619Y-2976190D01*
X-1095238Y-3023809D01*
X-1142857Y-3119047D01*
X-1142857Y-3261904D01*
X-1095238Y-3357142D01*
X-1047619Y-3404761D01*
X-952380Y-3452380D01*
X-571428Y-3452380D01*
X-571428Y-2452380D01*
X-904761Y-2452380D01*
X-999999Y-2500000D01*
X-1047619Y-2547619D01*
X-1095238Y-2642857D01*
X-1095238Y-2738095D01*
X-1047619Y-2833333D01*
X-999999Y-2880952D01*
X-904761Y-2928571D01*
X-571428Y-2928571D01*
X-2047619Y-2452380D02*
X-1571428Y-2452380D01*
X-1523809Y-2928571D01*
X-1571428Y-2880952D01*
X-1666666Y-2833333D01*
X-1904761Y-2833333D01*
X-1999999Y-2880952D01*
X-2047619Y-2928571D01*
X-2095238Y-3023809D01*
X-2095238Y-3261904D01*
X-2047619Y-3357142D01*
X-1999999Y-3404761D01*
X-1904761Y-3452380D01*
X-1666666Y-3452380D01*
X-1571428Y-3404761D01*
X-1523809Y-3357142D01*
X-2523809Y-3452380D02*
X-2523809Y-2452380D01*
X-2857142Y-3166666D01*
X-3190476Y-2452380D01*
X-3190476Y-3452380D01*
X-3666666Y-3452380D02*
X-3666666Y-2452380D01*
X-3999999Y-3166666D01*
X-4333333Y-2452380D01*
X-4333333Y-3452380D01*
X-5333333Y-2500000D02*
X-5238095Y-2452380D01*
X-5095238Y-2452380D01*
X-4952380Y-2500000D01*
X-4857142Y-2595238D01*
X-4809523Y-2690476D01*
X-4761904Y-2880952D01*
X-4761904Y-3023809D01*
X-4809523Y-3214285D01*
X-4857142Y-3309523D01*
X-4952380Y-3404761D01*
X-5095238Y-3452380D01*
X-5190476Y-3452380D01*
X-5333333Y-3404761D01*
X-5380952Y-3357142D01*
X-5380952Y-3023809D01*
X-5190476Y-3023809D01*
M02*
