G04 #@! TF.GenerationSoftware,KiCad,Pcbnew,(6.0.9)*
G04 #@! TF.CreationDate,2023-01-08T15:40:12+09:00*
G04 #@! TF.ProjectId,WBMon,57424d6f-6e2e-46b6-9963-61645f706362,1.0*
G04 #@! TF.SameCoordinates,Original*
G04 #@! TF.FileFunction,Soldermask,Top*
G04 #@! TF.FilePolarity,Negative*
%FSLAX46Y46*%
G04 Gerber Fmt 4.6, Leading zero omitted, Abs format (unit mm)*
G04 Created by KiCad (PCBNEW (6.0.9)) date 2023-01-08 15:40:12*
%MOMM*%
%LPD*%
G01*
G04 APERTURE LIST*
G04 Aperture macros list*
%AMRoundRect*
0 Rectangle with rounded corners*
0 $1 Rounding radius*
0 $2 $3 $4 $5 $6 $7 $8 $9 X,Y pos of 4 corners*
0 Add a 4 corners polygon primitive as box body*
4,1,4,$2,$3,$4,$5,$6,$7,$8,$9,$2,$3,0*
0 Add four circle primitives for the rounded corners*
1,1,$1+$1,$2,$3*
1,1,$1+$1,$4,$5*
1,1,$1+$1,$6,$7*
1,1,$1+$1,$8,$9*
0 Add four rect primitives between the rounded corners*
20,1,$1+$1,$2,$3,$4,$5,0*
20,1,$1+$1,$4,$5,$6,$7,0*
20,1,$1+$1,$6,$7,$8,$9,0*
20,1,$1+$1,$8,$9,$2,$3,0*%
G04 Aperture macros list end*
%ADD10R,0.500000X1.200000*%
%ADD11R,1.200000X0.500000*%
%ADD12RoundRect,0.200000X0.200000X-0.250000X0.200000X0.250000X-0.200000X0.250000X-0.200000X-0.250000X0*%
%ADD13C,1.400000*%
%ADD14C,1.100000*%
%ADD15R,1.600000X1.000000*%
%ADD16R,1.100000X1.600000*%
%ADD17R,1.000000X1.000000*%
%ADD18O,1.000000X1.000000*%
%ADD19R,0.200000X0.400000*%
%ADD20R,0.400000X0.200000*%
%ADD21RoundRect,0.200000X-0.200000X0.250000X-0.200000X-0.250000X0.200000X-0.250000X0.200000X0.250000X0*%
%ADD22RoundRect,0.200000X-0.250000X-0.200000X0.250000X-0.200000X0.250000X0.200000X-0.250000X0.200000X0*%
%ADD23R,0.350000X0.350000*%
%ADD24R,0.350000X0.130000*%
%ADD25R,0.130000X0.350000*%
%ADD26R,0.400000X0.400000*%
%ADD27R,0.300000X0.300000*%
%ADD28RoundRect,0.200000X0.250000X0.200000X-0.250000X0.200000X-0.250000X-0.200000X0.250000X-0.200000X0*%
%ADD29RoundRect,0.150000X0.150000X0.150000X-0.150000X0.150000X-0.150000X-0.150000X0.150000X-0.150000X0*%
%ADD30C,1.000000*%
%ADD31C,1.524000*%
%ADD32RoundRect,0.400000X-0.400000X-1.100000X0.400000X-1.100000X0.400000X1.100000X-0.400000X1.100000X0*%
G04 APERTURE END LIST*
D10*
X-4400000Y-5150000D03*
X-3450000Y-5150000D03*
X-2500000Y-5150000D03*
X-2500000Y-2850000D03*
X-4400000Y-2850000D03*
D11*
X1650000Y6500000D03*
X1650000Y7450000D03*
X1650000Y8400000D03*
X-650000Y8400000D03*
X-650000Y7450000D03*
X-650000Y6500000D03*
D12*
X-1200000Y-4850000D03*
X-1200000Y-3150000D03*
X300000Y-4850000D03*
X300000Y-3150000D03*
D13*
X-3810000Y11730000D03*
X-1270000Y11730000D03*
X1270000Y11730000D03*
X3810000Y11730000D03*
D14*
X10600000Y1000000D03*
X6600000Y1000000D03*
D15*
X4900000Y4750000D03*
X4900000Y3250000D03*
X4900000Y1750000D03*
X4900000Y250000D03*
X4900000Y-1250000D03*
D16*
X9700000Y-4300000D03*
D15*
X4900000Y-2750000D03*
D16*
X9700000Y6300000D03*
D17*
X-10300000Y-8500000D03*
D18*
X-10300000Y-7230000D03*
X-10300000Y-5960000D03*
X-10300000Y-4690000D03*
X-10300000Y-3420000D03*
D19*
X-7225000Y-4650000D03*
X-7775000Y-4650000D03*
D20*
X-8000000Y-4000000D03*
D19*
X-7775000Y-3350000D03*
X-7225000Y-3350000D03*
D20*
X-7000000Y-4000000D03*
D21*
X-5700000Y-3150000D03*
X-5700000Y-4850000D03*
X1800000Y-3150000D03*
X1800000Y-4850000D03*
D22*
X9150000Y11000000D03*
X10850000Y11000000D03*
D23*
X-10310000Y7160000D03*
D24*
X-10225000Y6600000D03*
X-10225000Y6150000D03*
X-10225000Y5700000D03*
X-10225000Y5250000D03*
X-10225000Y4800000D03*
X-10225000Y4350000D03*
X-10225000Y3900000D03*
X-10225000Y3450000D03*
X-10225000Y3000000D03*
X-10225000Y2550000D03*
X-10225000Y2100000D03*
X-10225000Y1650000D03*
X-10225000Y1200000D03*
X-10225000Y750000D03*
X-10225000Y300000D03*
D23*
X-10310000Y-260000D03*
D25*
X-9750000Y-175000D03*
X-9300000Y-175000D03*
X-8850000Y-175000D03*
X-8400000Y-175000D03*
X-7950000Y-175000D03*
X-7500000Y-175000D03*
X-7050000Y-175000D03*
X-6600000Y-175000D03*
X-6150000Y-175000D03*
X-5700000Y-175000D03*
X-5250000Y-175000D03*
X-4800000Y-175000D03*
X-4350000Y-175000D03*
D23*
X-3790000Y-260000D03*
D24*
X-3875000Y300000D03*
X-3875000Y750000D03*
X-3875000Y1200000D03*
X-3875000Y1650000D03*
X-3875000Y2100000D03*
X-3875000Y2550000D03*
X-3875000Y3000000D03*
X-3875000Y3450000D03*
X-3875000Y3900000D03*
X-3875000Y4350000D03*
X-3875000Y4800000D03*
X-3875000Y5250000D03*
X-3875000Y5700000D03*
X-3875000Y6150000D03*
X-3875000Y6600000D03*
D23*
X-3790000Y7160000D03*
D25*
X-4350000Y7075000D03*
X-4800000Y7075000D03*
X-5250000Y7075000D03*
X-5700000Y7075000D03*
X-6150000Y7075000D03*
X-6600000Y7075000D03*
X-7050000Y7075000D03*
X-7500000Y7075000D03*
X-7950000Y7075000D03*
X-8400000Y7075000D03*
X-8850000Y7075000D03*
X-9300000Y7075000D03*
X-9750000Y7075000D03*
D26*
X-8400000Y5700000D03*
X-8400000Y4800000D03*
X-8400000Y3900000D03*
X-8400000Y3000000D03*
X-8400000Y2100000D03*
X-8400000Y1200000D03*
X-7500000Y1200000D03*
X-6600000Y1200000D03*
X-5700000Y1200000D03*
X-5700000Y2100000D03*
X-5700000Y3000000D03*
X-5700000Y3900000D03*
X-5700000Y4800000D03*
D27*
X-5700000Y5700000D03*
X-6600000Y5700000D03*
D26*
X-7500000Y5700000D03*
X-7500000Y4800000D03*
X-7500000Y3900000D03*
X-7500000Y3000000D03*
X-7500000Y2100000D03*
X-6600000Y2100000D03*
X-6600000Y3000000D03*
X-6600000Y3900000D03*
X-6600000Y4800000D03*
X-10100000Y10035000D03*
X-4000000Y10035000D03*
D28*
X1350000Y9700000D03*
X-350000Y9700000D03*
D29*
X-9750000Y-2000000D03*
X-10750000Y-2000000D03*
D30*
X-2250000Y-10400000D03*
X2250000Y-10400000D03*
D31*
X3500000Y-8000000D03*
X1000000Y-8000000D03*
X-1000000Y-8000000D03*
X-3500000Y-8000000D03*
D32*
X-5850000Y-10400000D03*
X5850000Y-10400000D03*
M02*
