M48
; DRILL file {KiCad (6.0.9)} date Sun Jan  8 15:40:27 2023
; FORMAT={-:-/ absolute / metric / decimal}
; #@! TF.CreationDate,2023-01-08T15:40:27+09:00
; #@! TF.GenerationSoftware,Kicad,Pcbnew,(6.0.9)
; #@! TF.FileFunction,MixedPlating,1,2
FMAT,2
METRIC
; #@! TA.AperFunction,Plated,PTH,ViaDrill
T1C0.305
; #@! TA.AperFunction,Plated,PTH,ComponentDrill
T2C0.700
; #@! TA.AperFunction,Plated,PTH,ComponentDrill
T3C0.800
; #@! TA.AperFunction,Plated,PTH,ComponentDrill
T4C0.930
; #@! TA.AperFunction,Plated,PTH,ComponentDrill
T5C1.200
; #@! TA.AperFunction,NonPlated,NPTH,ComponentDrill
T6C1.000
; #@! TA.AperFunction,NonPlated,NPTH,ComponentDrill
T7C1.100
%
G90
G05
T1
X-11.5Y7.35
X-11.5Y-1.0
X-9.4Y4.8
X-9.4Y3.0
X-8.55Y-1.1
X-8.55Y-5.95
X-4.8Y6.15
X-4.8Y0.95
X-4.4Y-1.65
X-3.45Y-4.0
X-3.0Y8.5
X-2.85Y0.75
X-1.9Y7.45
X0.0Y0.0
X0.55Y1.65
X1.45Y2.55
X3.5Y7.0
X5.0Y8.5
X8.5Y0.0
X8.5Y-7.0
T2
X-10.3Y-3.42
X-10.3Y-4.69
X-10.3Y-5.96
X-10.3Y-7.23
X-10.3Y-8.5
T3
X-3.81Y11.73
X-1.27Y11.73
X1.27Y11.73
X3.81Y11.73
T4
X-3.5Y-8.0
X-1.0Y-8.0
X1.0Y-8.0
X3.5Y-8.0
T6
X-2.25Y-10.4
X2.25Y-10.4
T7
X6.6Y1.0
X10.6Y1.0
T5
G00X-5.85Y-9.75
M15
G01X-5.85Y-11.05
M16
G05
G00X5.85Y-9.75
M15
G01X5.85Y-11.05
M16
G05
T0
M30
